<?xml version="1.0" encoding="UTF-8" standalone="no"?>
<!-- Created with Inkscape (http://www.inkscape.org/) -->

<svg
   xmlns:dc="http://purl.org/dc/elements/1.1/"
   xmlns:cc="http://creativecommons.org/ns#"
   xmlns:rdf="http://www.w3.org/1999/02/22-rdf-syntax-ns#"
   xmlns:svg="http://www.w3.org/2000/svg"
   xmlns="http://www.w3.org/2000/svg"
   xmlns:sodipodi="http://sodipodi.sourceforge.net/DTD/sodipodi-0.dtd"
   xmlns:inkscape="http://www.inkscape.org/namespaces/inkscape"
   id="svg2"
   version="1.1"
   inkscape:version="0.91 r"
   xml:space="preserve"
   width="450"
   height="370"
   viewBox="0 0 450 370"
   sodipodi:docname="logo1.svg"><metadata
     id="metadata8"><rdf:RDF><cc:Work
         rdf:about=""><dc:format>image/svg+xml</dc:format><dc:type
           rdf:resource="http://purl.org/dc/dcmitype/StillImage" /><dc:title /></cc:Work></rdf:RDF></metadata><defs
     id="defs6"><clipPath
       clipPathUnits="userSpaceOnUse"
       id="clipPath284"><path
         d="M 0,800 800,800 800,0 0,0 0,800 Z"
         id="path286"
         inkscape:connector-curvature="0" /></clipPath><clipPath
       clipPathUnits="userSpaceOnUse"
       id="clipPath416"><path
         d="M 0,800 800,800 800,0 0,0 0,800 Z"
         id="path418"
         inkscape:connector-curvature="0" /></clipPath></defs><sodipodi:namedview
     pagecolor="#ffffff"
     bordercolor="#666666"
     borderopacity="1"
     objecttolerance="10"
     gridtolerance="10"
     guidetolerance="10"
     inkscape:pageopacity="0"
     inkscape:pageshadow="2"
     inkscape:window-width="1920"
     inkscape:window-height="1028"
     id="namedview4"
     showgrid="false"
     inkscape:zoom="2.078894"
     inkscape:cx="335.96959"
     inkscape:cy="175.931"
     inkscape:window-x="0"
     inkscape:window-y="0"
     inkscape:window-maximized="1"
     inkscape:current-layer="g414" /><g
     id="g10"
     inkscape:groupmode="layer"
     inkscape:label="22238-NTZY4O"
     transform="matrix(1.25,0,0,-1.25,0,370)"><g
       id="g412"
       transform="translate(-13.183345,-100.07358)"><g
         id="g414"
         clip-path="url(#clipPath416)"><g
           id="g904"
           transform="translate(309.86855,199.00295)"><path
             d="m 0,0 c -2.936,-2.432 -5.889,-4.845 -8.802,-7.304 -1.268,-1.071 -2.798,-1.689 -4.162,-2.588 -0.811,-0.775 -1.89,-0.991 -2.887,-1.378 -0.811,-0.338 -1.648,-0.627 -2.311,-1.24 -0.958,-0.617 -1.964,-1.142 -3.021,-1.569 -3.031,-1.493 -6.061,-2.985 -9.092,-4.478 -0.688,-0.357 -1.431,-0.565 -2.17,-0.781 -4.582,-1.473 -8.916,-3.638 -13.581,-4.88 -1.399,-0.378 -2.749,-0.935 -4.186,-1.178 -1.432,-0.417 -2.863,-0.833 -4.295,-1.249 -1.063,-0.415 -2.196,-0.542 -3.298,-0.796 -0.736,-0.623 -1.602,-0.348 -2.428,-0.35 -0.326,0.103 -0.661,0.231 -0.84,0.525 -1.684,2.765 -2.756,5.675 -2.075,8.99 0.382,1.855 1.288,3.309 2.865,4.454 2.651,1.925 2.717,4.285 0.089,6.269 -2.069,1.563 -2.912,3.66 -3.24,6.036 -0.405,2.932 0.678,4.704 3.38,5.915 0.184,0.083 0.376,0.149 0.558,0.236 2.432,1.164 2.604,2.652 0.513,4.419 -3.338,2.822 -4.533,7.037 -3.174,11.04 0.601,1.773 1.586,3.09 3.534,3.495 0.822,0.171 1.573,0.54 1.67,1.505 0.097,0.966 -0.6,1.456 -1.33,1.836 -3.943,2.052 -4.837,5.281 -4.198,9.498 0.824,5.436 3.842,9.416 7.837,12.733 6.942,5.764 13.834,11.554 19.478,18.663 0.377,0.475 0.798,0.911 1.231,1.333 1.749,1.567 3.025,3.595 4.882,5.059 3.228,3.713 7.164,6.692 10.584,10.208 1.995,1.881 4.283,3.388 6.432,5.077 1.905,1.779 4.213,2.942 6.585,3.841 6.086,2.307 12.163,4.684 18.699,5.516 1.947,0.248 3.905,0.426 5.824,0.168 3.085,-0.416 6.168,-0.285 9.253,-0.317 3.305,-0.034 3.305,-0.017 3.764,-3.143 -0.004,-3.369 0.754,-6.662 0.995,-10.007 l -0.025,0.037 c 0.549,-3.961 0.945,-7.892 0.37,-11.928 -0.479,-3.361 -0.524,-6.79 -0.905,-10.179 -0.156,-1.385 -0.334,-2.76 -0.673,-4.112 l 0.024,0.035 c -0.486,-0.902 0.195,-1.981 -0.431,-2.862 l 0.025,0.037 c -0.443,-2.43 -0.741,-4.885 -1.234,-7.306 l 0.023,0.036 C 29.777,48.721 30.521,47.799 29.718,47.289 28.005,41.071 26.081,34.93 22.918,29.26 19.676,23.449 16.374,17.675 12.125,12.512 11.679,11.98 11.35,11.344 10.747,10.951 9.769,10.193 9.202,9.101 8.46,8.15 7.917,7.171 7.102,6.433 6.279,5.704 5.786,5.212 5.293,4.72 4.801,4.228 4.435,3.593 3.773,3.283 3.251,2.82 2.505,2.543 2.054,1.932 1.579,1.346 1.153,0.78 0.55,0.421 0,0"
             style="fill:#594f4e;fill-opacity:1;fill-rule:nonzero;stroke:none"
             id="path906"
             inkscape:connector-curvature="0" /></g><g
           id="g908"
           transform="translate(276.39935,268.03435)"><path
             d="m 0,0 c -6.244,-7.889 -13.746,-14.455 -21.499,-20.805 -4.325,-3.542 -7,-8.197 -7.273,-14.018 -0.148,-3.164 1.366,-5.239 3.941,-6.681 1.097,-0.615 2.306,-1.104 2.047,-2.597 -0.244,-1.408 -1.394,-1.796 -2.71,-1.942 -1.269,-0.14 -1.935,-1.107 -2.407,-2.19 -1.812,-4.16 -0.652,-8.637 2.947,-11.431 2.331,-1.809 2.054,-4.166 -0.74,-5.173 -1.969,-0.711 -3.663,-1.599 -3.794,-3.882 -0.153,-2.686 0.335,-5.28 2.631,-7.05 3.61,-2.782 3.603,-5.201 -0.137,-7.873 -2.168,-1.548 -3.087,-5.419 -1.924,-8.654 0.563,-1.568 1.094,-3.182 2.155,-4.526 -1.634,-0.798 -3.445,-0.812 -5.176,-1.175 -0.629,0.089 -1.177,0.311 -1.436,0.947 -0.813,1.993 -1.828,3.983 -1.788,6.159 0.058,3.086 0.251,6.226 2.085,8.898 0.916,1.336 0.849,2.328 0.017,3.798 -2.872,5.078 -3.97,10.316 -0.103,15.491 0.617,0.827 0.484,1.533 0.128,2.423 -2.166,5.408 -2.443,10.706 1.161,15.698 0.347,0.48 0.54,0.954 0.099,1.454 -3.735,4.239 -2.491,8.993 -1.427,13.728 0.032,0.146 0.056,0.262 -0.007,0.365 -0.195,0.137 -0.382,0.042 -0.559,-0.035 -4.822,-2.085 -9.778,-3.773 -14.863,-5.104 -1.939,-0.508 -1.961,-0.766 -0.921,-2.446 0.686,-1.109 1.648,-1.927 2.594,-2.791 2.035,-1.859 1.725,-3.894 -0.722,-5.134 -0.24,-0.121 0.059,0.032 -0.183,-0.085 -4.36,-2.104 -4.757,-4.514 -1.307,-7.926 1.739,-1.72 1.481,-3.959 -0.606,-5.247 -0.287,-0.177 -0.595,-0.312 -0.903,-0.447 -3.447,-1.506 -4.42,-4.455 -2.562,-7.786 0.327,-0.586 0.751,-1.118 0.963,-1.767 0.597,-1.822 -0.045,-3.639 -1.752,-4.153 -1.965,-0.592 -3.74,-1.331 -4.384,-3.431 -0.817,-2.663 -1.327,-5.374 0.014,-8.057 0.21,-0.42 0.435,-0.835 0.556,-1.295 0.48,-1.823 -0.107,-3.387 -1.747,-4.29 -3.262,-1.795 -4.327,-4.611 -3.808,-8.126 0.177,-1.201 -0.138,-1.817 -1.371,-1.886 -1.451,-0.076 -2.852,0.179 -4.223,0.634 -0.895,0.504 -0.944,1.382 -1.032,2.266 -0.372,3.725 1.019,6.898 3.27,9.687 0.974,1.206 1.314,2.333 1.218,3.847 -0.237,3.714 -0.129,7.404 1.722,10.815 0.681,1.255 1.369,2.482 2.555,3.325 0.811,0.576 1.06,1.255 0.84,2.257 -0.869,3.943 -0.385,7.624 2.332,10.805 0.648,0.759 0.595,1.579 0.304,2.464 -1.344,4.094 -0.192,7.582 2.784,10.491 1.065,1.041 1.199,1.867 0.469,3.148 -1.892,3.32 -1.832,3.245 -5.652,2.897 -2.69,-0.245 -4.843,-1.294 -6.758,-3.159 -1.53,-1.49 -2.245,-3.09 -1.824,-5.235 0.326,-1.658 0.661,-3.275 1.472,-4.793 1.231,-2.305 0.434,-4.394 -1.954,-5.416 -0.496,-0.212 -1.026,-0.323 -1.537,-0.492 -2.5,-0.83 -3.823,-2.679 -3.811,-5.303 0.004,-0.958 0.236,-1.861 0.58,-2.748 1.67,-4.292 1.421,-4.893 -2.733,-6.668 -3.256,-1.39 -4.779,-5.014 -3.533,-8.41 0.162,-0.443 0.405,-0.85 0.601,-1.278 1.175,-2.57 0.519,-4.122 -2.139,-4.964 -1.093,-0.346 -2.185,-0.676 -3.202,-1.216 -2.462,-1.306 -3.018,-2.39 -2.661,-5.199 0.11,-0.865 0.11,-0.865 -0.736,-1.158 -1.695,0.245 -3.107,1.102 -4.468,2.068 -1.062,2.243 -0.396,4.936 1.756,7.092 0.767,0.768 1.634,1.444 2.593,1.908 1.641,0.792 2.247,2.006 1.942,3.753 -0.035,0.196 0.01,0.404 -0.009,0.604 -0.453,4.789 1.356,8.537 5.236,11.312 0.746,0.533 1.021,1.189 0.907,2.078 -0.111,0.868 -0.013,1.753 -0.095,2.62 -0.401,4.242 1.396,7.457 4.684,9.914 1.176,0.88 1.534,1.743 1.203,3.239 -0.682,3.084 -1.241,6.228 0.195,9.301 0.29,0.622 -0.054,0.892 -0.647,0.868 -3.643,-0.15 -7.249,0.347 -10.868,0.607 -0.862,0.062 -0.923,-0.508 -0.923,-1.196 0,-4.349 -0.209,-4.588 -4.575,-5.524 -3.399,-0.728 -5.529,-4.76 -4.216,-7.98 1.459,-3.581 0.388,-5.189 -3.517,-5.276 -0.539,-0.012 -1.078,0.013 -1.615,-0.041 -4.203,-0.421 -6.116,-3.483 -4.645,-7.428 1.033,-2.769 0.193,-4.364 -2.694,-5.081 -0.914,-0.227 -1.835,-0.424 -2.737,-0.7 -2.322,-0.712 -3.798,-2.195 -4.319,-4.606 -0.151,-0.702 -0.162,-1.501 -0.898,-1.948 -0.218,-0.062 -0.425,-0.035 -0.62,0.081 -0.716,0.522 -1.532,0.924 -2.048,1.688 -0.466,0.341 -0.914,0.699 -1.166,1.24 l 0.013,-0.012 c -0.155,0.147 -0.271,0.32 -0.351,0.518 0.466,3.536 2.341,6.163 5.527,7.609 1.899,0.862 2.598,1.707 2.551,4.003 -0.087,4.243 2.512,8.009 7.587,9.896 1.645,0.612 2.391,1.318 2.337,3.129 -0.128,4.254 2.743,6.802 5.623,9.288 0.456,0.394 1.014,0.661 1.54,0.961 0.75,0.426 1.307,0.986 1.172,1.929 -0.135,0.936 -0.943,1.051 -1.653,1.227 -4.7,1.169 -9.377,2.434 -14.096,3.525 -1.899,0.44 -2.441,-0.022 -2.426,-1.986 0.003,-0.336 0.063,-0.67 0.083,-1.005 0.191,-3.105 -1.07,-4.522 -4.206,-4.482 -2.094,0.027 -3.999,-0.318 -5.667,-1.665 -1.636,-1.32 -2.339,-2.909 -1.62,-4.98 0.089,-0.254 0.165,-0.512 0.235,-0.772 0.784,-2.923 -0.394,-4.603 -3.404,-4.707 -2.535,-0.088 -4.737,-0.811 -6.489,-2.745 -0.784,-0.866 -1.491,-1.719 -1.621,-2.937 -0.064,-0.603 -0.2,-1.213 -0.89,-1.458 -1.28,1.086 -2.535,2.196 -3.471,3.613 -0.335,1.136 0.056,2.078 0.691,3.016 1.719,2.539 3.956,4.388 6.9,5.305 1.065,0.331 1.806,0.822 1.78,2.082 -0.101,4.937 2.927,7.705 6.881,9.791 1.01,0.533 2.084,0.961 3.205,1.204 1.079,0.235 1.456,0.872 1.688,1.937 0.37,1.699 -0.107,2.538 -1.776,3.15 -2.393,0.876 -4.655,2.102 -6.896,3.333 -1.403,0.771 -2.773,0.673 -4.271,0.181 -6.028,-1.978 -12.244,-3.1 -18.564,-3.438 -3.744,-0.2 -7.52,-0.223 -11.267,0.248 -0.255,0.083 -0.51,0.167 -0.765,0.251 -5.439,0.523 -10.873,1.1 -16.329,1.422 -2.601,0.154 -5.159,0.643 -7.735,0.992 -2.971,0.404 -5.984,0.475 -8.984,0.611 -2.052,0.093 -4.08,0.366 -6.107,0.669 l 0.032,-0.027 c -6.978,0.68 -13.793,2.339 -20.702,3.434 -0.122,0.019 -0.228,0.12 -0.331,0.209 l 0.026,-0.017 c -0.624,0.462 -1.465,-0.128 -2.07,0.427 -3.063,0.67 -6.098,1.428 -8.949,2.779 -0.588,0.418 -1.337,0.456 -1.944,0.829 -0.281,0.128 -0.562,0.255 -0.843,0.383 -1.751,0.661 -3.447,1.438 -5.134,2.253 -3.655,1.766 -4.456,4.287 -2.377,7.85 1.474,2.525 1.474,2.525 -1.606,2.625 -0.328,0.011 -0.677,-0.055 -0.929,0.244 l 0.029,-0.021 c -2.391,0.262 -4.798,0.234 -7.194,0.394 -2.412,0.161 -4.661,0.701 -5.719,3.272 l 0.021,-0.032 c -0.678,0.679 -0.919,1.582 -1.244,2.441 l 0.022,-0.034 c -0.524,2.348 0.434,4.014 2.4,5.216 l -0.013,-0.013 c 1.506,2.016 3.812,2.74 6.024,3.397 7.206,2.139 14.657,3.065 22.057,4.257 4.828,0.777 9.676,1.438 14.542,1.59 4.281,0.134 8.568,0.304 12.859,0.314 4.629,0.012 9.261,-0.264 13.848,-0.593 3.841,-0.275 7.699,-0.454 11.54,-0.747 0.22,-0.017 0.439,-0.059 0.652,-0.115 1.785,-0.447 3.6,-0.698 5.44,-0.747 0.187,-0.024 0.372,-0.069 0.552,-0.123 0.578,-0.236 1.198,-0.294 1.809,-0.384 0.168,-0.031 0.333,-0.079 0.495,-0.132 0.641,-0.24 1.33,-0.152 1.987,-0.28 0.169,-0.031 0.333,-0.076 0.496,-0.126 0.748,-0.251 1.54,-0.112 2.3,-0.261 0.177,-0.03 0.349,-0.077 0.52,-0.127 0.616,-0.201 1.267,-0.143 1.895,-0.261 0.193,-0.038 0.374,-0.102 0.548,-0.189 1.372,-0.226 2.746,-0.433 4.121,-0.633 1.054,-0.283 2.115,-0.541 3.177,-0.793 0.822,-0.289 1.65,-0.338 2.483,-0.04 2.922,0.555 4.973,2.731 7.492,4.031 1.243,0.419 2.302,1.139 3.273,2.002 2.189,1.627 4.398,3.225 6.829,4.483 0.952,0.329 1.745,0.909 2.481,1.579 1.387,1.088 2.913,1.958 4.427,2.847 0.781,0.266 1.504,0.627 2.072,1.25 2.85,2.633 6.335,4.273 9.691,6.091 2.54,1.377 5.024,2.839 7.495,4.329 0.871,0.324 1.626,0.848 2.367,1.395 0.147,0.11 0.303,0.205 0.464,0.293 0.721,0.363 1.48,0.662 2.074,1.239 0.857,0.694 1.849,1.143 2.854,1.567 0.924,0.303 1.679,0.887 2.427,1.48 0.274,0.218 0.571,0.4 0.895,0.533 0.645,0.219 1.258,0.503 1.796,0.933 0.14,0.105 0.289,0.194 0.442,0.278 0.56,0.269 1.11,0.553 1.571,0.982 4.698,2.768 9.578,5.162 14.636,7.193 0.652,0.111 1.253,0.362 1.83,0.679 0.43,0.214 0.871,0.397 1.341,0.503 0.968,0.124 1.896,0.386 2.778,0.81 2.111,0.881 4.319,1.447 6.521,2.04 0.563,0.061 1.106,0.035 1.567,-0.35 0.306,-1.975 -0.611,-3.786 -0.773,-5.724 -0.687,-8.239 5.709,-12.816 12.62,-13.182 1.26,-0.066 2.675,0.381 3.735,-0.448 1.24,-0.97 0.281,-2.402 0.351,-3.621 0.246,-4.254 3.063,-7.891 7.32,-9.17 3.535,-1.061 7.136,-1.297 10.761,-0.437 1.05,0.249 2.117,0.39 3.177,0.576 2.232,0.391 2.578,0.002 2.328,-2.326 -0.421,-3.915 0.066,-7.641 2.432,-10.945 1.333,-1.863 2.995,-3.348 5.257,-3.854 2.95,-0.659 5.938,-1.203 8.99,-0.642 0.796,0.146 1.6,0.209 2.409,0.206 C -3.113,8.687 -2.462,8.226 -2.463,7.401 -2.464,5.042 -1.465,3.127 -0.099,1.323 0.198,0.931 0.282,0.464 0,0"
             style="fill:#44aca7;fill-opacity:1;fill-rule:nonzero;stroke:none"
             id="path910"
             inkscape:connector-curvature="0" /></g><g
           id="g912"
           transform="translate(325.22285,386.92695)"><path
             d="m 0,0 c 0.527,-0.184 1.054,-0.367 1.581,-0.551 0.373,0.114 0.722,0.028 1.066,-0.117 1.216,-0.606 2.444,-1.19 3.659,-1.8 0.163,-0.081 0.317,-0.179 0.467,-0.281 0.857,-0.677 1.849,-1.09 2.864,-1.459 0.25,-0.115 0.479,-0.262 0.704,-0.417 0.75,-0.534 1.627,-0.833 2.417,-1.296 2.518,-1.62 5.055,-3.223 6.676,-5.861 0.484,-0.789 1.032,-1.559 1.075,-2.54 -0.267,-1.268 -1.116,-0.946 -1.87,-0.622 -5.452,2.339 -11.226,2.141 -16.893,1.683 -3.29,-0.265 -6.545,-1.511 -9.684,-2.728 -9.468,-3.669 -18.412,-8.327 -26.037,-15.109 -5.881,-5.232 -11.306,-10.922 -15.558,-17.645 -2.23,-3.526 -4.518,-7.01 -6.481,-10.695 -0.383,-0.719 -0.883,-1.353 -1.608,-1.772 -1.002,-0.419 -1.815,0.139 -2.675,0.505 -8.353,3.559 -15.784,8.647 -23.113,13.907 -0.933,0.669 -1.681,1.549 -2.619,2.208 -0.398,0.921 0.377,1.681 0.345,2.553 0.113,0.681 0.385,1.289 0.842,1.81 0.464,0.468 0.712,1.055 0.899,1.674 1.43,3.026 3.032,5.958 4.765,8.819 0.655,0.519 1.072,1.183 1.206,2.018 0.533,1.558 1.529,2.762 2.849,3.717 0.621,0.358 1.077,0.857 1.307,1.549 0.69,1.205 1.706,2.096 2.792,2.921 0.537,0.321 0.958,0.757 1.277,1.295 1.32,1.782 2.589,3.612 4.539,4.797 1.159,0.452 1.881,1.41 2.658,2.303 0.181,0.209 0.393,0.379 0.634,0.513 1.017,0.421 1.664,1.288 2.42,2.024 1.526,1.205 2.996,2.494 4.809,3.277 0.799,0.267 1.456,0.78 2.139,1.248 2.726,1.482 5.414,3.045 8.39,4 0.818,0.171 1.621,0.397 2.394,0.72 0.419,0.173 0.837,0.351 1.278,0.462 0.598,0.13 1.222,0.083 1.812,0.27 0.165,0.056 0.333,0.097 0.503,0.133 0.675,0.125 1.378,0.056 2.038,0.296 0.171,0.061 0.344,0.104 0.52,0.14 0.816,0.131 1.661,0.038 2.455,0.341 0.192,0.063 0.386,0.106 0.585,0.139 1.763,-0.144 3.466,0.701 5.241,0.309 0.095,-0.09 0.185,-0.085 0.27,0.015 0.741,0.522 1.544,0.703 2.426,0.433 1.626,-0.358 3.255,-0.287 4.883,-0.022 0.227,0.035 0.454,0.034 0.681,0.004 1.497,-0.26 2.967,-0.747 4.521,-0.573 0.209,0.068 0.423,0.086 0.641,0.057 1.586,-0.291 3.194,-0.03 4.786,-0.188 0.212,-0.018 0.42,-0.06 0.626,-0.112 0.695,-0.266 1.443,-0.24 2.163,-0.367 C -4.253,1.229 -1.837,1.534 0,0"
             style="fill:#594f4e;fill-opacity:1;fill-rule:nonzero;stroke:none"
             id="path914"
             inkscape:connector-curvature="0" /></g><g
           id="g916"
           transform="translate(233.94685,169.49715)"><path
             d="m 0,0 c -6.757,-0.112 -13.515,-0.229 -20.272,-0.33 -0.652,-0.009 -1.348,-0.198 -1.938,0.277 0.986,0.011 0.948,0.529 0.773,1.309 -0.812,3.608 0.854,7.104 4.067,8.678 1.686,0.825 2.214,2.66 1.194,4.437 -1.901,3.314 -1.246,6.643 0.086,9.861 0.583,1.407 1.797,2.342 3.575,2.572 2.37,0.307 3.357,2.651 1.841,4.502 -1.546,1.886 -1.509,3.948 -1.421,6.091 0.063,1.512 0.964,2.453 2.357,2.956 0.755,0.272 1.566,0.454 2.246,0.854 1.944,1.145 2.137,3.429 0.213,4.568 -2.155,1.276 -2.038,3.329 -2.238,5.254 -0.12,1.154 0.838,1.918 1.841,2.425 0.656,0.332 1.341,0.607 2.02,0.894 2.48,1.047 2.845,2.961 0.653,4.532 -1.498,1.074 -2.338,2.552 -3.346,3.957 -0.641,0.893 -0.422,1.487 0.65,1.734 6.143,1.414 12.052,3.536 17.998,5.984 C 8.601,67.526 8.923,64.293 8.826,61.098 8.757,58.826 9.474,56.996 11.286,55.657 11.998,55.131 12.069,54.82 11.469,54.105 7.262,49.089 7.696,43.612 10.14,38.062 10.585,37.051 10.614,36.616 9.878,35.734 5.83,30.88 7.087,24.58 10.348,19.88 11.027,18.902 11.273,18.417 10.542,17.357 7.11,12.385 7.092,7.123 9.464,1.712 9.699,1.176 10.154,0.919 10.514,0.54 9.969,0.492 9.425,0.444 8.881,0.395 7.847,-0.072 6.686,0.561 5.661,0.025 l 0,0 C 5.511,-0.108 5.339,-0.145 5.147,-0.091 3.446,0.764 1.719,0.13 0,0"
             style="fill:#9cdfac;fill-opacity:1;fill-rule:nonzero;stroke:none"
             id="path918"
             inkscape:connector-curvature="0" /></g><g
           id="g920"
           transform="translate(160.03195,191.24045)"><path
             d="m 0,0 c 0.125,0.153 0.354,0.302 0.36,0.459 0.18,4.791 3.324,6.487 7.447,7.245 3.055,0.562 3.702,1.856 2.444,4.625 -1.698,3.735 0.696,7.575 4.959,7.909 0.935,0.073 1.883,-0.019 2.823,0.015 2.419,0.086 3.359,1.508 2.499,3.742 -1.558,4.046 -1.248,5.391 1.791,8.327 0.926,0.896 1.955,1.27 3.243,1.341 2.905,0.158 4.042,1.781 3.389,4.613 -0.501,2.179 -0.33,2.293 1.868,1.975 1.985,-0.287 3.994,-0.452 5.998,-0.542 2.007,-0.09 4.021,-0.02 6.369,-0.02 C 40.686,35.578 41.492,31.537 42.659,27.508 42.885,26.73 42.567,26.423 41.979,26.084 36.815,23.111 35.598,18.44 36.509,12.962 36.678,11.945 36.624,11.436 35.703,10.84 32.147,8.541 29.87,5.37 30.34,0.965 30.682,-2.25 29.927,-4.41 26.838,-5.982 c -2.919,-1.486 -3.739,-4.399 -3.358,-7.601 -1.248,0.182 -2.265,0.851 -3.265,1.555 -1.8,1.129 -3.736,1.989 -5.667,2.858 C 9.718,-7.085 5.103,-4.641 1.13,-1.126 0.764,-0.74 -0.13,-0.884 0,0"
             style="fill:#9cdfac;fill-opacity:1;fill-rule:nonzero;stroke:none"
             id="path922"
             inkscape:connector-curvature="0" /></g><g
           id="g924"
           transform="translate(207.30485,170.01455)"><path
             d="m 0,0 c -2.04,0.497 -4.074,1.017 -6.123,1.474 -0.522,0.116 -1.071,0.692 -1.635,0.063 -0.956,-0.1 -1.799,0.391 -2.715,0.508 -0.659,0.19 -1.062,0.768 -1.64,1.081 -2.493,0.556 -5.015,1.024 -7.212,2.449 0.617,0.082 0.472,0.397 0.339,0.841 -0.821,2.741 -0.197,4.31 2.251,5.718 1.287,0.74 2.662,1.223 4.119,1.573 2.119,0.508 2.869,2.188 1.662,4.009 -2.893,4.364 -0.329,10.118 4.231,11.017 2.281,0.449 2.892,2.135 1.863,4.297 -0.703,1.476 -1.26,2.936 -1.184,4.619 0.129,2.856 1.621,4.792 4.431,5.478 1.195,0.292 2.374,0.565 3.052,1.723 0.605,1.032 0.905,2.001 0.05,3.156 -1.5,2.026 -1.727,4.472 -1.829,6.894 -0.053,1.244 0.532,2.246 1.34,3.247 3.022,3.74 7.238,4.161 11.547,4.358 0.993,0.046 3.901,-5.484 3.237,-6.151 C 14.942,55.507 13.992,54.795 13.235,53.822 11.038,50.997 10.714,47.933 12.05,44.741 12.451,43.782 12.295,43.21 11.728,42.602 8.611,39.259 8.192,35.381 9.452,31.184 9.652,30.519 9.699,30.081 9.015,29.673 5.369,27.495 4.538,23.799 4.091,20.025 3.857,18.048 3.735,15.986 4.284,14.013 4.601,12.875 3.741,12.457 3.2,11.832 0.534,8.746 -0.866,5.234 -0.42,1.106 -0.379,0.727 -0.145,0.368 0,0"
             style="fill:#9cdfac;fill-opacity:1;fill-rule:nonzero;stroke:none"
             id="path926"
             inkscape:connector-curvature="0" /></g><g
           id="g928"
           transform="translate(140.68145,209.51795)"><path
             d="m 0,0 c 0.524,1.614 0.55,3.32 1.954,4.708 2.008,1.985 4.247,2.933 7.01,2.943 2.81,0.011 3.807,1.504 2.888,4.203 -1.339,3.932 1.319,7.707 5.596,7.921 0.804,0.04 1.613,-0.02 2.42,-0.024 2.39,-0.009 3.549,1.265 3.327,3.663 -0.025,0.266 -0.122,0.525 -0.147,0.791 -0.299,3.096 0.403,3.716 3.334,2.982 4.81,-1.205 9.624,-2.393 14.432,-3.609 0.726,-0.184 1.658,-0.126 1.59,-1.369 -0.056,-1.016 0.035,-1.853 -1.168,-2.464 C 37.85,18.023 35.291,15.451 34.137,11.723 33.728,10.403 34.438,5.89 29.475,5.411 26.452,3.748 24.677,1.206 23.99,-2.136 c -0.08,-0.391 -0.229,-0.853 -0.099,-1.187 1.003,-2.584 -0.366,-3.445 -2.573,-4.286 -3.265,-1.245 -4.855,-4.063 -5.624,-7.366 -1.941,0.652 -2.727,2.693 -4.403,3.664 C 7.399,-7.669 3.602,-3.932 0,0"
             style="fill:#9cdfac;fill-opacity:1;fill-rule:nonzero;stroke:none"
             id="path930"
             inkscape:connector-curvature="0" /></g><g
           id="g932"
           transform="translate(196.90045,172.33335)"
           style="fill:#ff8300;fill-opacity:1"><path
             d="m 0,0 c 1.028,0.232 1.902,-0.059 2.647,-0.783 0.93,-1.823 0.723,-3.813 0.73,-5.739 0.055,-13.909 0.054,-27.817 0.068,-41.726 0.003,-2.252 0.127,-2.419 2.209,-1.651 7.492,2.765 15.285,2.63 23.083,2.526 1.004,-0.013 1.788,-0.485 2.509,-1.117 0.543,-0.627 0.665,-1.271 0.075,-1.942 l 0.028,0.038 c -0.227,-0.62 -0.676,-0.993 -1.298,-1.172 -1.601,-0.348 -3.22,-0.084 -4.831,-0.117 0.527,0.011 1.053,0.011 1.58,-0.046 4.754,-1.884 9.229,-4.237 13.035,-7.719 l -0.038,0.03 c 0.679,-0.24 1.152,-0.76 1.664,-1.227 l -0.036,0.029 c 1.562,-1.115 2.092,-2.744 1.313,-4.033 -0.646,-1.068 -2.406,-1.335 -3.685,-0.515 -0.999,0.641 -2.092,1.155 -2.912,2.054 -0.133,0.147 -0.322,0.231 -0.501,0.314 -1.628,1.054 -3.081,2.34 -4.61,3.526 l 0.037,-0.03 c -4.355,2.266 -9.129,2.87 -13.889,3.613 -3.519,0.549 -7.016,0.149 -9.633,0.254 5.242,-2.322 11.345,-4.631 16.954,-8.046 l -0.038,0.027 c 0.776,-0.211 1.514,-0.497 2.166,-0.99 1.457,-1.102 1.822,-2.57 0.926,-3.8 -0.959,-1.317 -2.085,-1.416 -3.787,-0.335 l 0.019,-0.02 c -1.581,0.499 -2.973,1.417 -4.507,2.019 -0.129,0.12 -0.259,0.241 -0.389,0.362 -1.494,1.071 -3.328,1.472 -4.86,2.469 -0.205,0 -0.41,0 -0.615,-10e-4 -2.682,1.905 -5.865,2.75 -8.806,4.104 -1.08,0.498 -2.16,1.01 -3.249,1.498 -0.719,0.702 -1.703,1.032 -2.389,1.803 -0.68,0.763 -1.595,0.472 -2.43,0.262 -4.565,-1.148 -9.185,-2.074 -13.709,-3.384 -0.282,-0.082 -0.515,-0.056 -0.711,0.172 -0.677,-0.081 -1.183,0.198 -1.563,0.743 -0.453,0.675 -0.601,1.338 0.083,1.965 l -0.04,-0.043 c 0.468,1.064 1.611,0.834 2.412,1.259 l -0.036,-0.029 c 0.402,0.57 1.066,0.624 1.648,0.84 l -0.042,-0.027 c 3.703,1.81 7.794,2.343 11.716,3.386 1.658,0.441 1.808,1.127 1.806,2.455 -0.02,14.267 -0.016,28.533 -0.009,42.8 0.001,1.68 0.013,3.369 0.745,4.939 C -0.929,-0.509 -0.621,-0.064 0,0"
             style="fill:#ff8300;fill-opacity:1;fill-rule:nonzero;stroke:none"
             id="path934"
             inkscape:connector-curvature="0" /></g><g
           id="g936"
           transform="translate(115.58185,239.94005)"><path
             d="m 0,0 c 0.649,0.554 1.427,0.312 2.131,0.267 8.506,-0.542 16.83,0.764 25.123,2.417 3.986,2.932 7.443,0.82 10.928,-1.131 0.819,-0.459 1.647,-0.98 2.539,-1.216 2.208,-0.584 3.503,-1.419 2.622,-4.135 -0.397,-1.223 -0.53,-1.824 -1.965,-2.146 -3.402,-0.763 -6.353,-2.438 -8.42,-5.417 -1.043,-1.503 -1.559,-3.125 -1.381,-4.926 0.146,-1.481 -0.246,-2.181 -1.876,-2.644 -4.02,-1.143 -6.885,-3.713 -8.073,-7.878 -4.213,6.173 -8.109,12.545 -11.895,18.985 C 9.385,-7.245 8.897,-6.77 8.53,-6.206 8.131,-5.67 7.732,-5.134 7.332,-4.598 7.022,-4.092 6.62,-3.678 6.105,-3.377 5.83,-3.11 5.554,-2.842 5.278,-2.575 4.739,-2.172 4.23,-1.73 3.679,-1.343 2.452,-0.895 1.226,-0.448 0,0"
             style="fill:#9cdfac;fill-opacity:1;fill-rule:nonzero;stroke:none"
             id="path938"
             inkscape:connector-curvature="0" /></g><g
           id="g940"
           transform="translate(341.72755,305.30545)"><path
             d="m 0,0 c -0.99,-3.005 0.587,-4.724 0.277,-7.818 -0.079,-0.792 0.136,-3.447 0.101,-4.24 0.028,1.999 -2.697,2.83 -4.552,2.727 -3.405,-0.188 -6.816,-0.028 -10.232,0.254 -6.217,0.514 -12.047,-1.388 -17.821,-3.359 -4.564,-1.558 -9.134,-3.137 -12.974,-6.22 -2.992,-1.075 -5.077,0.726 -6.935,2.5 -2.12,2.025 -2.022,4.698 -1.188,7.342 0.181,0.575 0.543,1.079 0.835,1.608 0.549,0.997 0.867,2.02 0.002,2.988 -0.819,0.917 -1.834,0.679 -2.795,0.275 -3.033,-1.273 -6.183,-1.781 -9.46,-1.553 -0.536,0.037 -1.074,0.045 -1.603,0.153 -4.383,0.893 -6.132,3.856 -4.875,8.193 0.303,1.044 1.246,2.187 0.178,3.187 -1.045,0.977 -2.407,0.563 -3.657,0.298 -0.591,-0.125 -1.181,-0.299 -1.729,-0.544 -3.596,-1.608 -7.239,-1.104 -10.863,-0.205 -3.415,0.847 -4.956,3.391 -4.281,6.832 0.182,0.927 0.557,1.799 0.769,2.713 0.363,1.563 -0.32,2.465 -1.916,2.591 -0.814,0.064 -1.6,-0.166 -2.392,-0.309 -4.876,-0.879 -8.73,1.044 -11.774,4.626 -1.569,1.846 -1.324,4.442 -1.886,6.704 0.003,0.233 0.092,0.426 0.267,0.58 l -0.044,-0.016 c 0.719,0.647 1.479,1.256 1.998,2.094 1.206,2.044 2.412,4.087 3.618,6.13 0.149,0.133 0.281,0.125 0.394,-0.046 1.327,0.281 1.591,-1.038 2.356,-1.591 7.738,-5.591 15.649,-10.887 24.48,-14.65 0.428,-0.182 0.89,-0.283 1.336,-0.423 1.934,-0.949 3.588,-2.449 5.769,-2.916 3.222,-0.806 5.946,-2.775 9.104,-3.784 6.429,-2.052 13.043,-3.16 19.655,-4.33 6.209,-1.099 12.249,-3.042 18.552,-3.697 5.14,-0.535 10.299,-0.784 15.449,-1.164 1.28,-0.094 2.541,-0.228 3.78,-0.543 C -0.951,4.105 -0.072,3.559 0.176,2.335 0.231,1.654 0.39,0.968 0.062,0.308 -0.019,0.218 -0.04,0.115 0,0"
             style="fill:#44aca7;fill-opacity:1;fill-rule:nonzero;stroke:none"
             id="path942"
             inkscape:connector-curvature="0" /></g><g
           id="g944"
           transform="translate(227.59005,331.42265)"><path
             d="M 0,0 C 0.24,0.158 0.479,0.317 0.719,0.475 1.222,0.853 1.827,1.004 2.403,1.219 2.865,1.293 2.965,2.003 3.545,1.869 4.16,1.288 4.097,0.512 4.069,-0.21 3.88,-5.183 6.667,-8.241 10.734,-10.351 c 1.906,-0.99 4.016,-1.509 6.209,-1.601 2.15,-0.09 2.279,-0.273 2.193,-2.374 -0.17,-4.157 2.898,-8.057 7.377,-9.134 3.736,-0.899 7.523,-1.535 11.368,-0.592 1.188,0.291 1.547,-0.336 1.706,-1.36 1.022,-6.586 4.474,-9.527 11.157,-9.545 1.413,-0.004 2.825,0.015 4.238,-0.022 1.319,-0.035 1.926,-0.635 1.906,-2.011 -0.064,-4.626 2.336,-7.809 6.093,-10.164 0.477,-0.299 1.21,-0.392 1.07,-1.233 -3.49,-3.367 -6.979,-6.733 -10.469,-10.1 -1.829,-0.457 -1.645,0.973 -1.613,1.922 0.058,1.748 0.562,3.443 1.064,5.121 0.193,0.644 0.439,1.273 0.579,1.932 0.238,1.119 0.132,2.167 -0.822,2.935 -1.013,0.813 -2.09,0.547 -2.983,-0.139 -4.58,-3.521 -9.689,-2.974 -14.871,-2.055 -2.299,0.408 -3.597,1.683 -4.272,3.971 -1.09,3.695 -1.185,7.237 0.422,10.81 0.794,1.766 0.311,2.436 -1.55,2.815 -1.511,0.308 -2.945,0.107 -4.343,-0.47 -3.364,-1.387 -6.869,-1.821 -10.476,-1.591 -0.269,0.017 -0.541,-0.011 -0.807,0.025 -6.49,0.893 -7.371,3.058 -6.024,9.471 0.202,0.964 0.944,1.845 0.084,2.809 -0.86,0.961 -1.896,0.671 -2.991,0.512 -3.996,-0.582 -7.933,-0.253 -11.651,1.378 -2.837,1.245 -4.283,3.608 -4.459,6.674 -0.159,2.762 -0.086,5.519 1.009,8.139 0.174,0.32 0.496,0.449 0.794,0.608 1.723,0.182 3.331,0.698 4.792,1.643 0.657,0.32 1.384,0.457 2.036,0.789 L -2.513,-1.195 C -1.763,-0.612 -0.897,-0.274 0,0"
             style="fill:#44aca7;fill-opacity:1;fill-rule:nonzero;stroke:none"
             id="path946"
             inkscape:connector-curvature="0" /></g><g
           id="g948"
           transform="translate(217.83345,327.41945)"><path
             d="m 0,0 c -0.286,-2.383 -0.846,-4.702 -0.897,-7.149 -0.125,-5.965 3.928,-8.059 7.992,-8.534 2.943,-0.344 5.946,-1.063 8.935,0.185 1.021,0.426 1.878,-0.528 2.519,-1.317 0.628,-0.773 0.511,-1.592 -0.032,-2.411 -1.386,-2.091 -1.19,-4.579 -0.555,-6.616 0.729,-2.339 3.425,-2.564 5.608,-2.798 4.208,-0.451 8.313,0.15 12.183,1.905 1.689,0.767 3.338,0.23 4.911,-0.059 1.265,-0.232 1.671,-1.597 1.02,-2.77 -2.153,-3.882 -1.798,-7.812 -0.516,-11.831 0.426,-1.335 1.174,-2.234 2.537,-2.589 3.411,-0.891 6.902,-1.082 10.375,-0.774 1.876,0.167 3.473,1.389 5.002,2.474 1.35,0.958 2.701,1.341 4.005,0.175 1.143,-1.022 1.264,-2.366 0.794,-3.861 -0.64,-2.039 -1.185,-4.116 -1.618,-6.208 -0.185,-0.894 -0.536,-2.132 1.076,-2.306 -1.591,-1.633 -3.183,-3.267 -4.773,-4.901 -0.226,1.109 -1.156,1.776 -1.71,2.682 -0.716,1.171 -1.35,2.342 -1.166,3.759 0.208,1.604 -0.489,1.988 -1.954,1.669 -3.401,-0.742 -6.795,-0.43 -10.141,0.332 -4.573,1.042 -8.212,5.578 -8.526,10.291 -0.133,1.993 -0.616,3.949 -0.007,5.963 0.411,1.361 -0.483,1.331 -1.456,1.127 -3.138,-0.66 -6.257,-1.473 -9.517,-1.181 -2.549,0.228 -4.973,0.789 -7.332,1.879 -3.561,1.645 -6.187,7.135 -5.173,10.619 0.418,1.438 -0.408,1.73 -1.644,1.66 -3.203,-0.18 -6.389,0.186 -9.12,1.886 -6.158,3.832 -6.925,8.109 -5.685,15.276 0.136,0.784 0.488,1.531 0.74,2.295 C -2.934,-0.082 -1.53,0.19 0,0"
             style="fill:#547981;fill-opacity:1;fill-rule:nonzero;stroke:none"
             id="path950"
             inkscape:connector-curvature="0" /></g><g
           id="g952"
           transform="translate(291.64075,283.03555)"><path
             d="m 0,0 c -3.109,1.191 -5.085,3.555 -6.618,6.383 -0.836,1.543 -1.542,3.091 -1.072,4.933 0.276,1.079 -0.133,1.559 -1.349,1.585 -2.674,0.056 -5.381,-0.423 -8.02,0.351 -4.264,1.25 -8.512,4.807 -7.923,9.543 0.142,1.14 -0.242,1.187 -1.381,0.977 -5.213,-0.958 -10.41,-0.553 -14.942,2.271 -2.928,1.824 -4.674,4.856 -4.043,8.6 0.279,1.657 -0.807,1.194 -1.566,1.241 -3.79,0.233 -7.217,1.319 -10.08,3.953 -3.096,2.847 -3.989,6.391 -3.511,10.419 0.402,0.338 0.805,0.675 1.208,1.012 0.8,0.228 1.048,1.438 2.115,1.193 0.329,-1.152 0.872,-2.29 0.949,-3.459 0.268,-4.078 3.336,-5.557 6.37,-6.999 2.327,-1.106 4.831,-1.033 7.274,-0.311 1.377,0.407 2.589,0.165 3.485,-0.845 0.809,-0.911 0.369,-1.998 -0.037,-3.036 -2.076,-5.312 -0.288,-7.71 6.054,-8.812 3.002,-0.522 5.707,0.058 8.428,1.034 1.288,0.462 2.577,0.759 3.942,0.627 1.853,-0.18 2.528,-1.325 1.864,-3.091 -0.307,-0.815 -0.698,-1.625 -0.833,-2.472 -0.594,-3.739 1.495,-6.245 5.446,-6.547 3.527,-0.269 6.984,0.042 10.228,1.597 1.309,0.627 2.526,0.578 3.471,-0.546 0.884,-1.052 0.822,-2.28 0.015,-3.36 C -2.318,13.846 -2.685,11.199 -1.193,8.701 0.373,6.078 2.999,4.858 6.102,4.83 4.068,3.22 2.034,1.61 0,0"
             style="fill:#547981;fill-opacity:1;fill-rule:nonzero;stroke:none"
             id="path954"
             inkscape:connector-curvature="0" /></g><g
           id="g956"
           transform="translate(306.30395,204.06655)"><path
             d="M 0,0 C -0.015,-2.306 -1.387,-3.809 -3.513,-3.847 -5.236,-3.878 -6.567,-2.3 -6.539,-0.26 -6.511,1.745 -4.817,3.399 -2.755,3.435 -0.958,3.466 0.014,2.253 0,0"
             style="fill:#ddebb3;fill-opacity:1;fill-rule:nonzero;stroke:none"
             id="path958"
             inkscape:connector-curvature="0" /></g><g
           id="g960"
           transform="translate(301.02665,226.44085)"><path
             d="m 0,0 c -0.064,-2.047 -1.793,-3.663 -3.828,-3.575 -1.697,0.073 -3.012,1.354 -3.005,2.927 0.01,2.06 2.011,4.008 4.064,3.958 C -1.128,3.269 0.058,1.852 0,0"
             style="fill:#dcebb3;fill-opacity:1;fill-rule:nonzero;stroke:none"
             id="path962"
             inkscape:connector-curvature="0" /></g><g
           id="g964"
           transform="translate(282.92955,237.23975)"><path
             d="m 0,0 c -0.13,-2.065 -1.85,-3.645 -3.833,-3.521 -1.623,0.102 -2.824,1.578 -2.716,3.337 0.117,1.893 2.011,3.605 3.929,3.551 C -1.02,3.323 0.117,1.862 0,0"
             style="fill:#ddecb4;fill-opacity:1;fill-rule:nonzero;stroke:none"
             id="path966"
             inkscape:connector-curvature="0" /></g><g
           id="g968"
           transform="translate(285.03775,216.82465)"><path
             d="M 0,0 C 1.639,-0.029 2.636,-1.128 2.633,-2.9 2.629,-4.953 0.824,-6.585 -1.378,-6.525 -3.022,-6.481 -4.361,-5.126 -4.301,-3.569 -4.239,-1.966 -1.83,0.033 0,0"
             style="fill:#ddebb3;fill-opacity:1;fill-rule:nonzero;stroke:none"
             id="path970"
             inkscape:connector-curvature="0" /></g><g
           id="g972"
           transform="translate(326.41705,230.51975)"><path
             d="M 0,0 C -1.7,-0.002 -3.058,1.125 -3.055,2.535 -3.051,4.249 -0.72,6.586 1.04,6.641 2.705,6.693 3.681,5.676 3.722,3.847 3.771,1.638 2.189,0.003 0,0"
             style="fill:#ddebb3;fill-opacity:1;fill-rule:nonzero;stroke:none"
             id="path974"
             inkscape:connector-curvature="0" /></g><g
           id="g976"
           transform="translate(285.97445,188.58865)"><path
             d="M 0,0 C -1.699,-0.02 -2.78,1.027 -2.814,2.724 -2.857,4.95 -1.521,6.437 0.522,6.436 2.332,6.436 3.74,5.15 3.709,3.528 3.672,1.641 1.972,0.024 0,0"
             style="fill:#ddecb3;fill-opacity:1;fill-rule:nonzero;stroke:none"
             id="path978"
             inkscape:connector-curvature="0" /></g><g
           id="g980"
           transform="translate(272.27195,202.21005)"><path
             d="M 0,0 C -1.55,-0.002 -2.877,1.384 -2.868,2.994 -2.857,4.782 -1.014,6.501 0.878,6.488 2.404,6.478 3.801,5.01 3.749,3.472 3.686,1.6 1.961,0.003 0,0"
             style="fill:#ddecb3;fill-opacity:1;fill-rule:nonzero;stroke:none"
             id="path982"
             inkscape:connector-curvature="0" /></g><g
           id="g984"
           transform="translate(290.97295,251.91935)"><path
             d="M 0,0 C 1.715,0.045 2.79,-1.043 2.853,-2.888 2.922,-4.922 1.444,-6.529 -0.54,-6.576 -2.081,-6.613 -3.215,-5.466 -3.305,-3.778 -3.413,-1.77 -1.909,-0.051 0,0"
             style="fill:#ddecb3;fill-opacity:1;fill-rule:nonzero;stroke:none"
             id="path986"
             inkscape:connector-curvature="0" /></g><g
           id="g988"
           transform="translate(309.68825,238.35625)"><path
             d="M 0,0 C -1.553,-0.027 -2.936,1.186 -3.01,2.642 -3.103,4.469 -1.326,6.33 0.504,6.323 2.188,6.317 3.39,5.122 3.419,3.425 3.452,1.528 1.961,0.035 0,0"
             style="fill:#ddebb3;fill-opacity:1;fill-rule:nonzero;stroke:none"
             id="path990"
             inkscape:connector-curvature="0" /></g><g
           id="g992"
           transform="translate(265.17875,184.92075)"><path
             d="M 0,0 C 1.392,-0.112 2.639,-1.645 2.538,-3.121 2.42,-4.849 0.735,-6.265 -1.08,-6.163 -2.763,-6.068 -3.912,-4.641 -3.772,-2.819 -3.643,-1.141 -1.911,0.154 0,0"
             style="fill:#ddecb4;fill-opacity:1;fill-rule:nonzero;stroke:none"
             id="path994"
             inkscape:connector-curvature="0" /></g><g
           id="g996"
           transform="translate(263.81495,225.33365)"><path
             d="M 0,0 C -1.407,0.006 -2.715,1.282 -2.751,2.685 -2.792,4.314 -0.804,6.061 1.112,6.08 2.754,6.096 3.781,4.975 3.728,3.224 3.678,1.528 1.902,-0.008 0,0"
             style="fill:#dcebb3;fill-opacity:1;fill-rule:nonzero;stroke:none"
             id="path998"
             inkscape:connector-curvature="0" /></g><g
           id="g1000"
           transform="translate(330.43665,249.32035)"><path
             d="M 0,0 C 0.049,1.936 1.438,3.402 3.216,3.392 4.781,3.382 5.827,2.2 5.803,0.469 5.776,-1.473 4.21,-3.046 2.337,-2.889 0.618,-2.745 -0.054,-1.636 0,0"
             style="fill:#ddebb3;fill-opacity:1;fill-rule:nonzero;stroke:none"
             id="path1002"
             inkscape:connector-curvature="0" /></g><g
           id="g1004"
           transform="translate(317.86575,221.68955)"><path
             d="M 0,0 C 1.826,0.017 2.636,-0.745 2.651,-2.494 2.668,-4.372 1.23,-5.793 -0.663,-5.768 -2.384,-5.746 -3.532,-4.662 -3.526,-3.067 -3.519,-1.282 -2.067,-0.019 0,0"
             style="fill:#ddebb3;fill-opacity:1;fill-rule:nonzero;stroke:none"
             id="path1006"
             inkscape:connector-curvature="0" /></g><g
           id="g1008"
           transform="translate(323.55065,271.54285)"><path
             d="m 0,0 c 1.43,-0.002 2.533,-1.225 2.54,-2.817 0.008,-1.76 -1.663,-3.38 -3.544,-3.437 -1.309,-0.04 -2.482,1.229 -2.461,2.664 C -3.438,-1.8 -1.699,0.002 0,0"
             style="fill:#ddebb3;fill-opacity:1;fill-rule:nonzero;stroke:none"
             id="path1010"
             inkscape:connector-curvature="0" /></g><g
           id="g1012"
           transform="translate(301.02375,258.73875)"><path
             d="M 0,0 C -1.59,-0.019 -3.122,1.291 -3.19,2.727 -3.267,4.356 -1.622,6.058 0.105,6.136 1.65,6.206 2.82,4.877 2.794,3.083 2.77,1.458 1.465,0.017 0,0"
             style="fill:#dcebb3;fill-opacity:1;fill-rule:nonzero;stroke:none"
             id="path1014"
             inkscape:connector-curvature="0" /></g><g
           id="g1016"
           transform="translate(318.23915,258.81115)"><path
             d="m 0,0 c 1.358,-0.025 2.28,-0.841 2.375,-2.426 0.11,-1.825 -1.373,-3.276 -3.297,-3.295 -1.526,-0.015 -2.634,0.625 -2.82,2.239 C -3.928,-1.873 -2.024,-0.047 0,0"
             style="fill:#ddebb3;fill-opacity:1;fill-rule:nonzero;stroke:none"
             id="path1018"
             inkscape:connector-curvature="0" /></g><g
           id="g1020"
           transform="translate(258.42515,198.88035)"><path
             d="M 0,0 C 1.478,-0.119 2.37,-0.993 2.507,-2.54 2.673,-4.398 1.355,-5.873 -0.43,-5.94 -2.052,-6.001 -3.003,-4.841 -3.009,-2.798 -3.014,-1.372 -1.631,-0.042 0,0"
             style="fill:#dceab3;fill-opacity:1;fill-rule:nonzero;stroke:none"
             id="path1022"
             inkscape:connector-curvature="0" /></g><g
           id="g1024"
           transform="translate(316.82265,285.94855)"><path
             d="M 0,0 C 0.013,-1.787 -1.333,-3.041 -3.238,-3.019 -4.848,-3 -5.721,-2.213 -5.757,-0.58 -5.794,1.143 -4.38,2.565 -2.596,2.619 -1.019,2.666 -0.012,1.651 0,0"
             style="fill:#ddebb3;fill-opacity:1;fill-rule:nonzero;stroke:none"
             id="path1026"
             inkscape:connector-curvature="0" /></g><g
           id="g1028"
           transform="translate(337.59315,268.81295)"><path
             d="M 0,0 C 1.269,-0.197 2.104,-1.034 2.106,-2.512 2.109,-4.326 0.495,-5.817 -1.284,-5.738 -2.834,-5.67 -3.562,-4.85 -3.521,-3.295 -3.472,-1.473 -1.964,0.042 0,0"
             style="fill:#dceab3;fill-opacity:1;fill-rule:nonzero;stroke:none"
             id="path1030"
             inkscape:connector-curvature="0" /></g><g
           id="g1032"
           transform="translate(308.27185,271.46825)"><path
             d="M 0,0 C -1.178,0.103 -2.262,0.631 -2.368,2.206 -2.463,3.621 -0.475,5.802 0.902,5.757 2.589,5.704 3.163,4.515 3.225,3.051 3.301,1.278 2.051,0.061 0,0"
             style="fill:#dceab2;fill-opacity:1;fill-rule:nonzero;stroke:none"
             id="path1034"
             inkscape:connector-curvature="0" /></g><g
           id="g1036"
           transform="translate(341.45055,280.91015)"><path
             d="m 0,0 c -0.006,-1.487 -1.254,-2.484 -3.066,-2.473 -1.578,0.01 -2.333,0.83 -2.373,2.366 C -5.48,1.501 -4.326,2.68 -2.68,2.727 -1.313,2.766 0.006,1.424 0,0"
             style="fill:#ddecb3;fill-opacity:1;fill-rule:nonzero;stroke:none"
             id="path1038"
             inkscape:connector-curvature="0" /></g><g
           id="g1040"
           transform="translate(328.96965,282.97465)"><path
             d="m 0,0 c -0.045,-1.775 -1.19,-2.828 -2.867,-2.807 -1.442,0.019 -2.267,0.764 -2.355,2.17 -0.092,1.478 1.604,3.154 3.089,3.082 C -0.514,2.366 -0.058,1.247 0,0"
             style="fill:#dcebb3;fill-opacity:1;fill-rule:nonzero;stroke:none"
             id="path1042"
             inkscape:connector-curvature="0" /></g><g
           id="g1044"
           transform="translate(228.35155,240.20175)"><path
             d="m 0,0 c -3.094,-1.737 -6.58,-2.166 -9.969,-2.777 -4.068,-0.732 -8.201,-1.44 -12.315,-1.49 -3.53,-0.043 -7.093,0.164 -10.644,0.222 -10.619,0.174 -20.908,2.191 -30.718,6.199 -8.379,3.423 -16.874,6.55 -25.217,10.048 -4.197,1.759 -8.427,3.544 -12.162,6.237 -0.549,0.396 -1.542,0.71 -1.081,1.656 0.47,0.965 1.288,0.345 1.93,0.117 9.951,-3.541 20.385,-4.98 30.711,-6.746 4.51,-0.772 9.267,0.009 13.898,-0.206 6.162,-0.285 12.12,0.946 18.13,1.917 4.504,0.729 8.834,2.166 13.267,3.123 4.711,1.018 9.344,2.275 13.987,3.525 0.39,-0.707 -0.044,-1.301 -0.302,-1.89 C -13.739,12.519 -9.402,3.887 -1.692,1.078 -1.068,0.851 -0.125,1.041 0,0"
             style="fill:#547980;fill-opacity:1;fill-rule:nonzero;stroke:none"
             id="path1046"
             inkscape:connector-curvature="0" /></g><g
           id="g1048"
           transform="translate(206.10475,264.72995)"><path
             d="m 0,0 c -5.497,-1.935 -11.258,-2.892 -16.832,-4.484 -9.026,-2.577 -18.236,-2.904 -27.354,-2.094 -8.886,0.79 -17.857,1.5 -26.596,3.648 -2.135,0.524 -4.358,0.677 -6.531,1.058 -0.705,0.123 -1.685,0.299 -1.642,1.174 0.051,1.012 1.08,0.824 1.768,0.792 9.929,-0.474 19.17,2.294 28.414,5.54 7.724,2.714 15.425,5.467 22.981,8.6 5.079,2.107 10.053,4.47 15.2,6.421 0.558,0.212 1.151,0.329 1.728,0.49 C -8.331,20.294 -8.733,19.432 -8.9,18.607 -10.262,11.875 -7.609,6.7 -2.707,2.358 -1.811,1.564 -0.659,1.064 0,0"
             style="fill:#547981;fill-opacity:1;fill-rule:nonzero;stroke:none"
             id="path1050"
             inkscape:connector-curvature="0" /></g><g
           id="g1052"
           transform="translate(189.92665,288.17635)"><path
             d="m 0,0 c -3.235,-2.112 -6.942,-3.183 -10.454,-4.671 -3.152,-1.335 -6.274,-2.7 -9.337,-4.235 -2.078,-1.042 -4.424,-1.533 -6.595,-2.407 -6.524,-2.627 -13.009,-5.368 -19.898,-6.928 -6.599,-1.495 -13.297,-2.309 -20.051,-2.651 -0.607,-0.031 -1.515,-0.376 -1.769,0.471 -0.224,0.746 0.367,1.384 0.904,1.911 4.656,4.569 10.105,8.091 15.49,11.693 3.674,2.459 7.293,5.025 11.119,7.225 7.854,4.516 15.363,9.567 22.965,14.475 2.072,1.338 3.889,3.087 6.346,3.774 0.623,-1.094 -0.235,-1.915 -0.561,-2.807 -1.496,-4.104 -1.525,-7.98 1.463,-11.525 2.039,-2.42 4.704,-3.427 7.747,-3.707 C -1.729,0.535 -0.724,0.852 0,0"
             style="fill:#547981;fill-opacity:1;fill-rule:nonzero;stroke:none"
             id="path1054"
             inkscape:connector-curvature="0" /></g><g
           id="g1056"
           transform="translate(80.477654,264.40345)"><path
             d="m 0,0 c 8.307,-0.529 16.683,0.229 24.935,-0.891 6.246,-0.848 12.261,-2.749 17.822,-5.981 2.606,-1.514 4.737,-3.503 6.918,-5.464 1.602,-1.44 3.077,-3 5.074,-3.921 0.331,-0.153 0.869,-0.259 0.777,-0.776 -0.08,-0.446 -0.572,-0.559 -0.945,-0.617 -2.773,-0.432 -5.489,-1.224 -8.317,-1.299 -7.591,-0.2 -15.131,0.428 -22.695,1.044 -7.096,0.579 -14.017,2.129 -21.057,2.932 -1.992,0.227 -4.032,0.022 -6.049,0.065 -0.854,0.018 -1.757,-0.214 -2.548,0.334 1.233,1 2.594,0.519 3.804,0.398 -2.663,1.269 -4.483,4.387 -4.252,7.442 0.215,2.859 2.459,5.503 5.396,6.368 C -0.756,-0.254 -0.341,-0.238 0,0"
             style="fill:#9cdfac;fill-opacity:1;fill-rule:nonzero;stroke:none"
             id="path1058"
             inkscape:connector-curvature="0" /></g><g
           id="g1060"
           transform="translate(229.89175,266.48875)"><path
             d="m 0,0 c 5.164,2.722 10.392,5.329 15.297,8.515 0.67,0.435 1.095,0.293 1.432,-0.41 3.817,-7.949 10.799,-10.253 18.889,-10.58 0.13,-0.005 0.258,-0.062 0.631,-0.157 -5.27,-7.81 -12.142,-13.569 -20.487,-17.643 -2.416,-0.265 -4.844,-0.259 -7.246,0.012 -7.277,0.822 -11.831,7.018 -10.521,14.651 C -1.666,-3.642 -1.467,-1.584 0,0"
             style="fill:#594f4e;fill-opacity:1;fill-rule:nonzero;stroke:none"
             id="path1062"
             inkscape:connector-curvature="0" /></g><g
           id="g1064"
           transform="translate(210.26045,291.91905)"><path
             d="m 0,0 c 1.079,0.951 2.396,1.464 3.702,1.992 2.312,0.934 4.522,2.038 6.591,4.066 2.197,-11.595 9.541,-17.289 20.587,-18.821 -0.994,-1.71 -9.192,-5.72 -18.009,-8.73 -1.044,-0.669 -2.114,-0.156 -3.132,0.017 -3.085,0.526 -5.967,1.704 -8.563,3.405 -3.75,2.456 -5.163,6.07 -4.453,10.464 C -2.826,-4.815 -2.194,-2.06 0,0"
             style="fill:#594f4e;fill-opacity:1;fill-rule:nonzero;stroke:none"
             id="path1066"
             inkscape:connector-curvature="0" /></g><g
           id="g1068"
           transform="translate(66.718154,279.82125)"><path
             d="m 0,0 c 0.571,0.512 1.288,0.426 1.924,0.33 6.13,-0.922 12.292,0.404 18.44,-0.364 5.905,-0.737 11.938,-0.696 17.753,-1.828 4.523,-0.881 9.285,-1.338 13.582,-3.681 -0.883,-1.359 -2.375,-1.243 -3.538,-1.745 -4.556,-1.968 -9.183,-3.701 -14.169,-4.293 -1.412,-0.168 -2.81,-0.165 -4.216,-0.176 -8.256,-0.062 -16.509,0.088 -24.76,0.383 -1.144,0.041 -2.273,-0.029 -3.379,-0.34 -0.849,0.53 -1.819,0.852 -2.541,1.603 -1.55,1.612 -2.447,3.417 -1.568,5.657 0.879,2.242 2.483,3.681 4.706,4.135 C 1.668,-0.194 0.685,-0.938 0,0"
             style="fill:#9cdfac;fill-opacity:1;fill-rule:nonzero;stroke:none"
             id="path1070"
             inkscape:connector-curvature="0" /></g><g
           id="g1072"
           transform="translate(189.10265,312.83345)"><path
             d="m 0,0 c 4.004,2.334 8.251,4.181 12.405,6.216 1.252,0.614 1.779,0.643 1.77,-1.104 -0.029,-5.776 2.462,-10.616 6.069,-14.941 1.374,-1.647 3.463,-2.222 5.745,-3.233 -4.445,-2.726 -9.114,-4.158 -13.434,-6.302 -3.332,-0.425 -6.618,-0.083 -9.577,1.46 -3.575,1.864 -4.896,5.154 -4.707,9.076 C -1.585,-5.807 -0.91,-2.877 0,0"
             style="fill:#594f4e;fill-opacity:1;fill-rule:nonzero;stroke:none"
             id="path1074"
             inkscape:connector-curvature="0" /></g><g
           id="g1076"
           transform="translate(228.35155,240.20175)"><path
             d="m 0,0 c -4.127,1.258 -7.644,3.289 -9.93,7.171 -2.873,4.879 -2.838,9.723 -0.253,14.653 2.805,1.591 5.928,2.401 8.889,3.608 0.316,-0.799 -0.205,-1.426 -0.469,-2.084 C -5.501,14.051 1.349,4.59 9.424,4.138 9.954,4.109 10.508,4.078 10.863,3.572 7.242,2.381 3.621,1.191 0,0"
             style="fill:#b1b791;fill-opacity:1;fill-rule:nonzero;stroke:none"
             id="path1078"
             inkscape:connector-curvature="0" /></g><g
           id="g1080"
           transform="translate(206.10475,264.72995)"><path
             d="m 0,0 c -6.219,3.143 -11.989,11.133 -9.045,20.365 0.08,0.253 0.121,0.519 0.18,0.78 3.055,1.925 6.589,2.858 9.687,4.694 C 1.219,25.19 0.766,24.692 0.515,24.165 -3.23,16.283 -0.82,8.799 7.42,5.541 8.757,5.012 10.481,4.956 11.29,3.392 8.238,2.375 5.186,1.361 2.137,0.34 1.441,0.107 0.766,-0.225 0,0"
             style="fill:#b1b791;fill-opacity:1;fill-rule:nonzero;stroke:none"
             id="path1082"
             inkscape:connector-curvature="0" /></g><g
           id="g1084"
           transform="translate(189.92655,288.17635)"><path
             d="m 0,0 c -2.133,0.057 -4.272,-0.028 -6.318,0.817 -6.384,2.635 -8.79,8.994 -5.879,15.624 0.321,0.731 0.612,1.477 0.917,2.216 2.517,1.544 4.988,3.166 7.67,4.424 0.544,-0.801 0.056,-1.555 -0.131,-2.306 -0.532,-2.15 -1.031,-4.294 -0.963,-6.539 C -4.558,9.403 -1.454,5.369 3.195,3.974 4.196,3.674 5.355,3.731 6.119,2.819 4.079,1.879 2.04,0.94 0,0"
             style="fill:#b1b791;fill-opacity:1;fill-rule:nonzero;stroke:none"
             id="path1086"
             inkscape:connector-curvature="0" /></g><g
           id="g1088"
           transform="translate(63.188054,268.09745)"><path
             d="m 0,0 c -4.124,-0.522 -8.251,-0.746 -12.377,-0.043 -2.897,0.494 -5.097,2.273 -5.282,4.225 -0.209,2.188 1.617,4.903 4.354,5.64 4.622,1.243 9.295,2.516 14.183,1.577 C 0.611,10.185 -0.425,9.4 -0.84,8.249 -1.628,6.061 -1.792,3.952 -0.537,1.87 -0.2,1.312 0.222,0.737 0,0"
             style="fill:#594f4e;fill-opacity:1;fill-rule:nonzero;stroke:none"
             id="path1090"
             inkscape:connector-curvature="0" /></g><g
           id="g1092"
           transform="translate(73.691654,249.90475)"><path
             d="m 0,0 c -2.41,-0.094 -4.807,-0.029 -7.194,0.392 -2.779,0.491 -5.025,1.891 -6.709,4.07 -2.417,3.127 -0.748,7.662 3.175,8.806 4.129,1.205 8.324,1.962 12.655,1.611 C 2.057,14.135 1.456,13.804 1.025,13.452 -2.407,10.655 -2.761,6.277 -0.741,2.192 -0.398,1.497 0.25,0.898 0,0"
             style="fill:#594f4e;fill-opacity:1;fill-rule:nonzero;stroke:none"
             id="path1094"
             inkscape:connector-curvature="0" /></g><g
           id="g1096"
           transform="translate(239.21445,243.77395)"><path
             d="m 0,0 c -5.652,-0.095 -9.655,2.621 -12.359,7.396 -2.736,4.831 -2.423,9.678 0.202,14.464 0.878,0.506 1.802,0.861 2.834,0.854 -0.535,-1.993 -1.163,-3.95 -1.529,-6.002 C -12.16,9.384 -7.163,3.347 0.283,2.84 2.334,2.7 4.436,3.272 6.439,2.44 4.521,1.024 2.191,0.696 0,0"
             style="fill:#ddecb4;fill-opacity:1;fill-rule:nonzero;stroke:none"
             id="path1098"
             inkscape:connector-curvature="0" /></g><g
           id="g1100"
           transform="translate(217.39425,268.12145)"><path
             d="m 0,0 c -1.663,0.686 -3.347,1.326 -4.985,2.066 -8.259,3.729 -9.927,11.618 -6.149,19.165 0.207,0.413 0.443,0.812 0.666,1.217 1.069,0.553 2.008,1.427 3.334,1.349 C -8.288,21.376 -9.468,18.989 -9.88,16.268 -10.614,11.418 -8.498,7.333 -4.061,5.216 -0.941,3.727 2.309,2.734 5.736,2.305 6.087,1.622 5.581,1.564 5.124,1.438 3.414,0.966 1.708,0.48 0,0"
             style="fill:#deedb4;fill-opacity:1;fill-rule:nonzero;stroke:none"
             id="path1102"
             inkscape:connector-curvature="0" /></g><g
           id="g1104"
           transform="translate(196.04535,290.99505)"><path
             d="m 0,0 c -8.39,0.789 -13.069,7.475 -10.822,16.422 0.324,1.29 0.727,2.561 1.093,3.84 0.753,0.837 1.819,1.12 2.786,1.577 C -6.53,19.373 -7.825,17.165 -8,14.772 -8.258,11.248 -8.114,7.929 -5.187,5.398 -2.974,3.484 -0.239,3.201 2.501,2.972 3.555,2.884 4.646,3.093 5.612,2.474 3.978,1.113 1.912,0.732 0,0"
             style="fill:#deecb4;fill-opacity:1;fill-rule:nonzero;stroke:none"
             id="path1106"
             inkscape:connector-curvature="0" /></g><g
           id="g1108"
           transform="translate(73.691654,249.90475)"><path
             d="m 0,0 c -1.135,1.815 -2.227,3.644 -2.45,5.846 -0.397,3.917 1.213,6.849 4.378,9.034 1.645,0.204 3.246,-0.161 4.858,-0.381 C 5.501,13.68 4.111,12.986 2.95,12.019 -0.414,9.219 0.185,3.762 4.089,0.973 4.449,0.716 4.844,0.507 5.174,-0.075 c -1.491,0 -2.982,0 -4.473,0 C 0.468,-0.05 0.234,-0.025 0,0"
             style="fill:#dcecb4;fill-opacity:1;fill-rule:nonzero;stroke:none"
             id="path1110"
             inkscape:connector-curvature="0" /></g><g
           id="g1112"
           transform="translate(63.188054,268.09745)"><path
             d="m 0,0 c -2.945,4.736 -2.693,8.019 0.876,11.398 0.848,0.422 1.767,0.242 2.654,0.326 0.801,0 1.602,0 2.72,0 C 5.201,10.604 3.983,10.254 3.083,9.432 0.022,6.635 1.046,3.068 3.955,1.186 4.436,0.874 5.15,0.8 5.167,0.01 3.445,0.006 1.722,0.003 0,0"
             style="fill:#ddecb4;fill-opacity:1;fill-rule:nonzero;stroke:none"
             id="path1114"
             inkscape:connector-curvature="0" /></g><g
           id="g1116"
           transform="translate(272.69175,322.61595)"><path
             d="m 0,0 c -2.128,0.486 -3.982,1.426 -5.325,3.213 3.067,4.335 5.363,9.147 8.433,13.495 2.293,3.247 4.711,6.37 7.411,9.269 3.758,4.035 7.61,7.989 12.115,11.213 7.982,5.711 16.686,9.922 26.012,13.036 6.239,2.083 12.422,1.664 18.705,0.938 1.555,-0.18 2.98,-0.799 4.365,-1.5 0.545,-0.275 1.021,-0.481 1.047,0.438 0.682,-0.885 1.12,-2.016 2.36,-2.337 -0.542,-0.532 -1.314,-0.842 -1.58,-1.644 -2.204,-0.05 -4.389,0.263 -6.593,0.31 -3.576,0.076 -7.129,-0.25 -10.663,-0.56 C 53.089,45.589 49.972,44.462 46.98,43.302 37.388,39.582 28.385,34.753 20.895,27.581 14.559,21.513 9.073,14.711 4.906,6.935 3.955,5.161 3.309,3.227 2.138,1.564 1.603,0.805 1.159,-0.089 0,0"
             style="fill:#deedb4;fill-opacity:1;fill-rule:nonzero;stroke:none"
             id="path1118"
             inkscape:connector-curvature="0" /></g><g
           id="g1120"
           transform="translate(266.71365,337.61085)"><path
             d="M 0,0 C 0.131,-2.566 -1.29,-4.018 -3.067,-5.032 -4.29,-5.73 -5.733,-5.463 -6.78,-4.4 c -1.346,1.367 -1.222,3.085 -0.686,4.711 0.45,1.364 1.472,2.414 2.725,3.123 C -2.39,4.766 -0.005,2.9 0,0"
             style="fill:#deecb4;fill-opacity:1;fill-rule:nonzero;stroke:none"
             id="path1122"
             inkscape:connector-curvature="0" /></g><g
           id="g1124"
           transform="translate(276.39875,349.38615)"><path
             d="m 0,0 c -0.048,-2.671 -2.048,-4.381 -5.172,-4.423 -1.609,-0.022 -2.592,1.085 -2.583,2.908 0.012,2.463 2.337,5.144 4.457,5.141 C -1.108,3.622 0.042,2.358 0,0"
             style="fill:#ddecb4;fill-opacity:1;fill-rule:nonzero;stroke:none"
             id="path1126"
             inkscape:connector-curvature="0" /></g><g
           id="g1128"
           transform="translate(278.69025,358.32155)"><path
             d="M 0,0 C 0.135,2.299 1.726,3.727 3.986,3.576 5.842,3.453 6.904,2.214 6.757,0.345 6.586,-1.837 4.711,-3.536 2.586,-3.434 0.946,-3.356 -0.114,-1.949 0,0"
             style="fill:#ddecb4;fill-opacity:1;fill-rule:nonzero;stroke:none"
             id="path1130"
             inkscape:connector-curvature="0" /></g><g
           id="g1132"
           transform="translate(300.52035,374.00045)"><path
             d="M 0,0 C 0.05,2.064 1.675,3.567 3.82,3.534 5.45,3.509 6.586,2.345 6.574,0.714 6.558,-1.405 4.633,-3.295 2.579,-3.209 1.023,-3.143 -0.044,-1.815 0,0"
             style="fill:#dcebb3;fill-opacity:1;fill-rule:nonzero;stroke:none"
             id="path1134"
             inkscape:connector-curvature="0" /></g><g
           id="g1136"
           transform="translate(295.70405,367.19195)"><path
             d="m 0,0 c 0.045,-1.661 -1.701,-3.287 -3.601,-3.353 -1.631,-0.056 -3.008,1.204 -3.054,2.794 -0.046,1.595 1.784,3.458 3.484,3.547 C -1.624,3.07 -0.043,1.58 0,0"
             style="fill:#ddebb3;fill-opacity:1;fill-rule:nonzero;stroke:none"
             id="path1138"
             inkscape:connector-curvature="0" /></g><g
           id="g1140"
           transform="translate(319.04535,378.18495)"><path
             d="m 0,0 c 0.037,-1.732 -1.506,-3.204 -3.413,-3.254 -1.632,-0.044 -2.925,1.117 -2.941,2.64 C -6.372,1.069 -4.553,3 -2.936,3.014 -1.437,3.027 -0.034,1.587 0,0"
             style="fill:#ddebb3;fill-opacity:1;fill-rule:nonzero;stroke:none"
             id="path1142"
             inkscape:connector-curvature="0" /></g><g
           id="g1144"
           transform="translate(327.94745,378.27345)"><path
             d="M 0,0 C -1.241,0.031 -2.264,0.363 -2.342,1.721 -2.425,3.164 -1.374,3.714 -0.164,3.83 1.025,3.944 2.04,3.43 2.085,2.116 2.132,0.78 1.273,0.076 0,0"
             style="fill:#dbe9b2;fill-opacity:1;fill-rule:nonzero;stroke:none"
             id="path1146"
             inkscape:connector-curvature="0" /></g><g
           id="g1148"
           transform="translate(266.99585,137.55185)"
           style="fill:#ff8300;fill-opacity:1"><path
             d="m 0,0 c 0,-0.63 0,-1.26 0,-1.89 -0.506,-0.296 -1.012,-0.592 -1.518,-0.888 -2.09,-0.259 -4.182,-0.479 -6.136,-0.357 0.233,-0.048 0.628,-0.023 1.025,-0.032 0.744,-0.095 1.589,0.258 2.172,-0.509 4.855,-1.446 8.871,-4.39 12.932,-7.255 0.713,-0.603 1.452,-1.178 2.133,-1.817 1.006,-0.943 1.31,-2.098 0.468,-3.248 -0.852,-1.163 -2.047,-1.208 -3.224,-0.464 -1.242,0.786 -2.438,1.643 -3.655,2.468 l -0.005,-0.015 c -1.726,0.765 -2.989,2.169 -4.484,3.253 l 0.035,-0.03 c -7.724,3.586 -15.937,4.149 -24.277,3.931 -0.268,0.014 0.069,-0.361 -0.004,-0.102 -0.025,0.087 0.026,0.106 0.151,0.109 1.647,0.029 2.798,-1.182 4.22,-1.727 3.998,-1.532 7.812,-3.51 11.761,-5.171 0.648,-0.273 1.082,-0.771 1.568,-1.225 l -0.028,0.029 c 1.059,-0.252 1.957,-0.756 2.715,-1.562 0.866,-0.919 1.277,-1.908 0.499,-3.023 -0.788,-1.13 -1.853,-1.786 -3.251,-1.062 -1.589,0.823 -3.239,1.533 -4.74,2.521 -0.266,0.12 -0.531,0.241 -0.797,0.362 -1.478,1.101 -3.329,1.468 -4.858,2.469 -0.267,0.119 -0.534,0.239 -0.801,0.358 -4.138,2.192 -8.937,3.088 -12.67,5.963 -2.081,1.602 -3.788,1.43 -6.046,0.845 -3.937,-1.02 -7.93,-1.843 -11.857,-2.925 -0.214,-0.059 -0.373,0.074 -0.499,0.239 -0.756,0.394 -1.699,0.623 -1.666,1.753 0.033,1.11 0.945,1.297 1.728,1.693 4.666,2.361 9.774,3.264 14.777,4.502 0.914,0.226 1.412,0.475 1.409,1.529 -0.029,10.945 -0.02,21.89 -0.027,32.835 0,0.129 -0.065,0.259 -0.099,0.388 1.483,1.075 4.283,1.113 5.225,0.071 -0.02,-7.798 -0.043,-15.597 -0.06,-23.395 -0.007,-2.757 0.004,-5.515 0,-8.273 -0.003,-2.367 0.099,-2.452 2.319,-1.711 0.374,0.125 0.711,0.359 1.065,0.542 6.877,1.874 13.9,2.159 20.974,1.989 C -2.194,1.136 -1.003,0.912 0,0"
             style="fill:#ff8300;fill-opacity:1;fill-rule:nonzero;stroke:none"
             id="path1150"
             inkscape:connector-curvature="0" /></g><g
           id="g1152"
           transform="translate(272.69175,322.61595)"><path
             d="m 0,0 c 1.788,1.173 2.526,3.111 3.411,4.889 3.183,6.391 7.061,12.265 11.875,17.579 4.714,5.203 9.82,9.905 15.779,13.604 7.559,4.694 15.607,8.612 24.339,10.172 5.765,1.029 11.855,1.464 17.791,0.104 0.102,-0.024 0.236,0.09 0.355,0.14 3.157,-1.82 6.049,-4.024 7.541,-7.413 2.298,-5.216 2.963,-10.57 0.155,-15.895 C 79.993,22.45 79.928,20.958 79.155,19.92 78.531,18.999 78.284,17.858 77.473,17.046 77.167,16.859 77.14,16.559 77.152,16.245 76.836,15.44 76.855,14.514 76.265,13.81 75.842,13.511 75.932,13.063 75.927,12.643 75.585,11.977 75.571,11.168 75.04,10.583 73.13,5.475 71.262,0.353 70.004,-4.965 69.867,-5.54 69.915,-6.159 69.877,-6.758 c -0.526,-1.188 0.171,-2.511 -0.407,-3.693 -0.036,-0.113 -0.036,-0.226 0.001,-0.339 -0.54,-1.46 0.189,-3.035 -0.408,-4.49 -0.981,1.747 -2.813,1.781 -4.41,1.926 -4.533,0.412 -9.099,0.476 -13.626,0.932 -5.246,0.528 -10.433,1.382 -15.583,2.665 -6.22,1.55 -12.608,2.407 -18.877,3.776 C 12.322,-5.054 8.094,-3.967 4.219,-1.845 2.878,-1.111 1.41,-0.608 0,0"
             style="fill:#9cdfac;fill-opacity:1;fill-rule:nonzero;stroke:none"
             id="path1154"
             inkscape:connector-curvature="0" /></g><g
           id="g1156"
           transform="translate(353.93785,345.79595)"
           style="fill:#ff8300;fill-opacity:1"><path
             d="m 0,0 c 0.526,2.731 1.367,5.379 1.166,8.258 -0.362,5.196 -1.853,9.716 -6.5,12.638 -1.003,0.63 -1.406,1.778 -2.362,2.413 -0.596,1.805 0.945,0.978 1.573,1.276 1.406,-0.129 2.475,-1.262 3.907,-1.314 1.389,-0.411 2.898,-0.425 4.159,-1.26 L 1.919,22.01 c 2.914,-1.347 5.826,-2.696 8.874,-3.72 0.19,-0.267 0.461,-0.299 0.756,-0.263 1.338,-0.32 2.208,-1.39 3.318,-2.076 0.978,-0.94 2.407,-1.45 2.804,-2.944 -0.156,-1.758 -1.758,-2.113 -2.859,-2.962 -0.627,-0.484 -1.295,-0.881 -2.02,-1.19 l 0.037,0.031 C 12.152,8.11 11.326,7.552 10.358,7.204 7.676,5.121 5.017,3.006 2.297,0.975 1.645,0.488 0.916,-0.034 0,0"
             style="fill:#ff8300;fill-opacity:1;fill-rule:nonzero;stroke:none"
             id="path1158"
             inkscape:connector-curvature="0" /></g><g
           id="g1160"
           transform="translate(206.85485,246.17385)"><path
             d="M 0,0 C -0.393,1.939 2.089,3.886 4.03,3.928 5.475,3.959 6.336,2.856 6.407,1.44 6.502,-0.449 4.328,-2.553 2.352,-2.516 0.77,-2.487 -0.133,-1.662 0,0"
             style="fill:#b1b791;fill-opacity:1;fill-rule:nonzero;stroke:none"
             id="path1162"
             inkscape:connector-curvature="0" /></g><g
           id="g1164"
           transform="translate(198.86345,246.35445)"><path
             d="m 0,0 c 0.034,-2.112 -0.679,-2.945 -2.636,-2.963 -1.445,-0.013 -2.97,-0.014 -3.061,2.018 -0.075,1.659 1.632,3.254 3.409,3.295 C -0.663,2.387 0.062,1.586 0,0"
             style="fill:#b0b791;fill-opacity:1;fill-rule:nonzero;stroke:none"
             id="path1166"
             inkscape:connector-curvature="0" /></g><g
           id="g1168"
           transform="translate(169.83195,248.32915)"><path
             d="m 0,0 c 1.304,0.102 2.066,-0.836 2.242,-2.254 0.139,-1.121 -1.766,-3.104 -2.86,-2.96 -1.904,0.252 -1.781,1.799 -1.839,3.201 C -2.521,-0.484 -1.61,-0.048 0,0"
             style="fill:#aeb591;fill-opacity:1;fill-rule:nonzero;stroke:none"
             id="path1170"
             inkscape:connector-curvature="0" /></g><g
           id="g1172"
           transform="translate(183.49135,245.89165)"><path
             d="m 0,0 c -0.232,-1.213 -1,-2.358 -2.523,-2.368 -1.447,-0.01 -2.358,1.02 -2.312,2.501 0.047,1.515 1.042,2.278 2.522,2.255 C -0.965,2.367 0.038,1.842 0,0"
             style="fill:#afb691;fill-opacity:1;fill-rule:nonzero;stroke:none"
             id="path1174"
             inkscape:connector-curvature="0" /></g><g
           id="g1176"
           transform="translate(192.68255,276.97475)"><path
             d="M 0,0 C 1.548,-0.02 2.531,-1.109 2.484,-2.754 2.43,-4.644 0.219,-6.573 -1.83,-6.479 -3.452,-6.404 -3.994,-5.385 -3.984,-3.909 -3.968,-1.697 -2.217,0.028 0,0"
             style="fill:#b0b691;fill-opacity:1;fill-rule:nonzero;stroke:none"
             id="path1178"
             inkscape:connector-curvature="0" /></g><g
           id="g1180"
           transform="translate(180.39495,267.22215)"><path
             d="M 0,0 C -1.369,-0.026 -2.84,-0.171 -2.981,1.787 -3.085,3.228 -0.523,5.263 1.408,5.233 2.72,5.213 3.555,4.583 3.508,3.113 3.442,1.049 2.307,0.026 0,0"
             style="fill:#b0b691;fill-opacity:1;fill-rule:nonzero;stroke:none"
             id="path1182"
             inkscape:connector-curvature="0" /></g><g
           id="g1184"
           transform="translate(171.37395,267.17845)"><path
             d="m 0,0 c -0.026,-2.034 -1.536,-3.617 -3.202,-3.593 -1.54,0.022 -2.147,0.839 -2.106,2.296 0.042,1.529 1.905,3.399 3.455,3.309 C -0.555,1.936 -0.066,1.011 0,0"
             style="fill:#afb691;fill-opacity:1;fill-rule:nonzero;stroke:none"
             id="path1186"
             inkscape:connector-curvature="0" /></g><g
           id="g1188"
           transform="translate(153.18635,264.48315)"><path
             d="M 0,0 C -0.005,1.228 0.601,1.775 1.611,1.698 2.744,1.612 4.034,1.429 3.984,-0.11 3.945,-1.298 3.359,-2.445 1.993,-2.407 0.514,-2.365 0.186,-1.089 0,0"
             style="fill:#aeb591;fill-opacity:1;fill-rule:nonzero;stroke:none"
             id="path1190"
             inkscape:connector-curvature="0" /></g><g
           id="g1192"
           transform="translate(176.21915,293.09385)"><path
             d="m 0,0 c 0.001,-1.808 -1.788,-3.603 -3.602,-3.644 -1.633,-0.037 -2.285,0.984 -2.404,2.374 -0.153,1.789 1.56,3.711 3.18,3.735 C -1.223,2.488 -0.001,1.423 0,0"
             style="fill:#b0b691;fill-opacity:1;fill-rule:nonzero;stroke:none"
             id="path1194"
             inkscape:connector-curvature="0" /></g><g
           id="g1196"
           transform="translate(165.28445,287.31485)"><path
             d="m 0,0 c -0.163,-1.566 -1.673,-2.82 -3.239,-2.69 -1.603,0.132 -2.586,1.316 -2.38,2.864 0.195,1.46 1.913,2.863 3.284,2.681 C -1.053,2.685 0.129,1.239 0,0"
             style="fill:#b0b691;fill-opacity:1;fill-rule:nonzero;stroke:none"
             id="path1198"
             inkscape:connector-curvature="0" /></g><g
           id="g1200"
           transform="translate(154.02875,282.78855)"><path
             d="m 0,0 c -0.003,-1.687 -1.152,-2.83 -2.946,-2.778 -1.203,0.034 -2.315,0.406 -2.3,1.917 0.014,1.424 1.751,3.096 3.135,3.121 C -0.642,2.287 0.003,1.597 0,0"
             style="fill:#b0b691;fill-opacity:1;fill-rule:nonzero;stroke:none"
             id="path1202"
             inkscape:connector-curvature="0" /></g><g
           id="g1204"
           transform="translate(137.75935,277.77495)"><path
             d="M 0,0 C 0.906,-0.075 1.629,-0.548 1.677,-1.686 1.74,-3.207 0.652,-4.538 -0.563,-4.477 -2.007,-4.404 -1.988,-3.346 -1.985,-2.319 -1.98,-0.782 -1.358,-0.005 0,0"
             style="fill:#afb691;fill-opacity:1;fill-rule:nonzero;stroke:none"
             id="path1206"
             inkscape:connector-curvature="0" /></g><g
           id="g1208"
           transform="translate(101.39085,253.07655)"><path
             d="M 0,0 C -1.568,0.033 -2.638,0.68 -2.741,2.303 -2.862,4.23 -1.365,4.334 -0.027,4.422 1.452,4.519 2.487,3.843 2.469,2.263 2.45,0.722 1.414,0.084 0,0"
             style="fill:#5b5350;fill-opacity:1;fill-rule:nonzero;stroke:none"
             id="path1210"
             inkscape:connector-curvature="0" /></g><g
           id="g1212"
           transform="translate(82.297954,254.75105)"><path
             d="M 0,0 C -1.303,0.132 -2.447,0.569 -2.412,1.982 -2.377,3.448 -1.161,3.978 0.121,4.07 1.346,4.158 2.251,3.609 2.273,2.241 2.299,0.706 1.277,0.175 0,0"
             style="fill:#5b5350;fill-opacity:1;fill-rule:nonzero;stroke:none"
             id="path1214"
             inkscape:connector-curvature="0" /></g><g
           id="g1216"
           transform="translate(92.120754,254.13225)"><path
             d="M 0,0 C -1.212,0.056 -2.209,0.565 -2.217,1.852 -2.224,3.213 -1.229,3.861 0.077,3.848 1.284,3.836 2.498,3.542 2.516,2.041 2.535,0.457 1.27,0.157 0,0"
             style="fill:#5b5351;fill-opacity:1;fill-rule:nonzero;stroke:none"
             id="path1218"
             inkscape:connector-curvature="0" /></g><g
           id="g1220"
           transform="translate(113.47185,252.63775)"><path
             d="M 0,0 C -1.078,0.093 -2.219,0.614 -2.221,2.073 -2.223,3.486 -0.966,3.645 0.129,3.668 1.418,3.694 2.437,3.118 2.463,1.735 2.488,0.374 1.468,-0.025 0,0"
             style="fill:#5b5552;fill-opacity:1;fill-rule:nonzero;stroke:none"
             id="path1222"
             inkscape:connector-curvature="0" /></g><g
           id="g1224"
           transform="translate(73.426654,272.10635)"><path
             d="M 0,0 C -1.307,0.238 -2.36,0.784 -2.288,2.281 -2.215,3.805 -0.993,4.022 0.177,3.968 1.353,3.913 2.58,3.528 2.514,2.07 2.449,0.632 1.306,0.135 0,0"
             style="fill:#5b5552;fill-opacity:1;fill-rule:nonzero;stroke:none"
             id="path1226"
             inkscape:connector-curvature="0" /></g><g
           id="g1228"
           transform="translate(95.028354,274.07655)"><path
             d="m 0,0 c -0.117,-1.716 -1.488,-2.068 -2.698,-2.192 -1.294,-0.134 -1.905,1.023 -1.952,2.117 -0.057,1.318 0.9,1.799 2.158,1.776 C -1.26,1.678 -0.208,1.461 0,0"
             style="fill:#5b5451;fill-opacity:1;fill-rule:nonzero;stroke:none"
             id="path1230"
             inkscape:connector-curvature="0" /></g><g
           id="g1232"
           transform="translate(82.235454,272.11745)"><path
             d="M 0,0 C -1.245,0.111 -2.147,0.69 -2.174,2.076 -2.201,3.507 -1.118,3.905 -0.003,3.828 1.153,3.747 2.576,3.617 2.441,1.88 2.331,0.473 1.304,0.045 0,0"
             style="fill:#5b5451;fill-opacity:1;fill-rule:nonzero;stroke:none"
             id="path1234"
             inkscape:connector-curvature="0" /></g><g
           id="g1236"
           transform="translate(102.95585,271.23625)"><path
             d="M 0,0 C -1.305,0 -2.285,0.465 -2.311,1.923 -2.338,3.49 -1.029,3.528 -0.01,3.528 1.032,3.529 2.389,3.365 2.37,1.94 2.352,0.619 1.331,-0.003 0,0"
             style="fill:#5a514f;fill-opacity:1;fill-rule:nonzero;stroke:none"
             id="path1238"
             inkscape:connector-curvature="0" /></g><g
           id="g1240"
           transform="translate(330.50205,349.52575)"><path
             d="m 0,0 c -3.762,-0.203 -7.586,3.018 -7.969,6.741 -0.047,0.456 -0.023,0.957 0.117,1.388 1.044,3.202 5.785,7.393 10.31,6.15 C 5.685,13.393 7.942,10.059 7.652,6.62 7.351,3.058 4.74,0.407 1.204,0.078 0.804,0.04 0.402,0.026 0,0"
             style="fill:#040000;fill-opacity:1;fill-rule:nonzero;stroke:none"
             id="path1242"
             inkscape:connector-curvature="0" /></g><g
           id="g1244"
           transform="translate(330.83645,356.96575)"><path
             d="m 0,0 c -0.009,-1.499 -1.237,-2.822 -2.605,-2.81 -1.377,0.012 -2.407,1.194 -2.362,2.71 0.042,1.429 1.317,2.711 2.715,2.73 C -1.094,2.645 0.009,1.358 0,0"
             style="fill:#f7f6f6;fill-opacity:1;fill-rule:nonzero;stroke:none"
             id="path1246"
             inkscape:connector-curvature="0" /></g></g></g></g></svg>