<?xml version="1.0" encoding="UTF-8" standalone="no"?>
<!-- Created with Inkscape (http://www.inkscape.org/) -->

<svg
   xmlns:dc="http://purl.org/dc/elements/1.1/"
   xmlns:cc="http://creativecommons.org/ns#"
   xmlns:rdf="http://www.w3.org/1999/02/22-rdf-syntax-ns#"
   xmlns:svg="http://www.w3.org/2000/svg"
   xmlns="http://www.w3.org/2000/svg"
   xmlns:sodipodi="http://sodipodi.sourceforge.net/DTD/sodipodi-0.dtd"
   xmlns:inkscape="http://www.inkscape.org/namespaces/inkscape"
   width="95mm"
   height="104mm"
   viewBox="0 0 336.61416 368.50395"
   id="svg2"
   version="1.1"
   inkscape:version="0.91 r"
   sodipodi:docname="logo2.svg">
  <defs
     id="defs4" />
  <sodipodi:namedview
     id="base"
     pagecolor="#ffffff"
     bordercolor="#666666"
     borderopacity="1.0"
     inkscape:pageopacity="0.0"
     inkscape:pageshadow="2"
     inkscape:zoom="1.4"
     inkscape:cx="177.34833"
     inkscape:cy="226.473"
     inkscape:document-units="px"
     inkscape:current-layer="layer1"
     showgrid="false"
     inkscape:window-width="1920"
     inkscape:window-height="1028"
     inkscape:window-x="0"
     inkscape:window-y="0"
     inkscape:window-maximized="1" />
  <metadata
     id="metadata7">
    <rdf:RDF>
      <cc:Work
         rdf:about="">
        <dc:format>image/svg+xml</dc:format>
        <dc:type
           rdf:resource="http://purl.org/dc/dcmitype/StillImage" />
        <dc:title />
      </cc:Work>
    </rdf:RDF>
  </metadata>
  <g
     inkscape:label="Calque 1"
     inkscape:groupmode="layer"
     id="layer1"
     transform="translate(0,-683.85825)">
    <g
       id="g1248"
       transform="matrix(1.25,0,0,-1.25,205.65335,1027.5205)"
       style="fill:#ff8f00;fill-opacity:1">
      <path
         d="m 0,0 c 6.224,-1.494 11.008,-5.466 15.858,-9.293 1.072,-0.846 1.209,-2.128 0.307,-3.245 -0.844,-1.045 -2.001,-1.108 -3.081,-0.398 -1.572,1.034 -3.19,2.044 -4.582,3.293 -4.151,3.726 -9.201,5.086 -14.52,5.909 -4.669,0.723 -9.35,1.031 -14.1,0.769 0.285,-0.722 1.049,-0.724 1.615,-0.924 6.164,-2.188 11.97,-5.152 17.771,-8.132 0.357,-0.184 0.715,-0.381 1.036,-0.621 1.075,-0.803 1.697,-1.826 0.963,-3.125 -0.78,-1.381 -2.003,-1.433 -3.313,-0.771 -2.879,1.455 -5.712,3.008 -8.636,4.367 -4.565,2.122 -9.19,4.117 -13.789,6.166 -0.404,0.067 -0.805,0.246 -1.045,0.524 -1.737,2.012 -3.843,1.773 -6.044,1.069 l 0.034,0.021 c -3.968,-1.138 -8.049,-1.827 -11.998,-3.039 -0.217,-0.067 -0.374,0.075 -0.519,0.214 -0.676,-0.082 -1.182,0.195 -1.56,0.74 -0.406,0.678 -0.501,1.356 -0.003,2.034 0.119,0.122 0.238,0.243 0.357,0.364 0.658,0.372 1.39,0.544 2.098,0.782 l -0.034,-0.029 c 0.397,0.578 1.066,0.623 1.646,0.841 0,0 0.002,-0.015 0.002,-0.015 4.176,1.22 8.356,2.434 12.625,3.291 1.094,0.22 1.149,0.876 1.147,1.748 -0.026,11.403 -0.033,22.806 -0.052,34.209 -0.005,2.814 -0.037,5.628 -0.057,8.442 -1.091,2.242 -0.343,4.323 0.68,6.308 0.461,0.896 1.431,1.208 2.454,0.975 1.185,-0.27 1.865,-1.139 2.074,-2.243 0.323,-1.713 0.612,-3.443 0.62,-5.2 0.119,-4.356 0.332,-8.737 -0.013,-13.063 -0.732,-9.169 -0.152,-18.336 -0.363,-27.5 -0.059,-2.603 0.051,-2.643 2.584,-1.871 0.191,0.058 0.385,0.109 0.573,0.178 6.713,1.783 13.558,2.174 20.462,1.941 C 1.798,4.696 2.406,4.727 2.998,4.645 4.048,4.501 5.012,4.071 5.246,2.952 5.495,1.756 4.717,1.115 3.65,0.782 1.357,0.608 -0.933,0.245 -3.238,0.601 -3.505,0.676 -3.206,0.207 -3.289,0.463 -3.311,0.53 -3.24,0.584 -3.106,0.538 -2.097,0.198 -0.939,0.731 0,0"
         style="fill:#ff8f00;fill-opacity:1;fill-rule:nonzero;stroke:none"
         id="path1250"
         inkscape:connector-curvature="0" />
    </g>
    <g
       id="g1252"
       transform="matrix(1.25,0,0,-1.25,179.40685,775.63335)">
      <path
         d="m 0,0 c 0.028,0.603 -0.39,0.914 -0.803,1.229 -1.887,1.47 -2.844,3.604 -3.623,5.71 -2.124,5.736 -3.925,11.575 -3.816,17.805 0.705,1.094 0.048,2.41 0.576,3.532 -0.018,0.543 0.066,1.057 0.423,1.494 0.29,1.242 0.107,2.585 0.804,3.739 l -0.014,-0.022 c 0.33,0.933 0.42,1.937 0.842,2.842 L -5.63,36.302 c 0.275,0.869 0.648,1.692 1.144,2.458 0.144,0.283 0.289,0.567 0.434,0.85 0.727,0.831 0.938,1.967 1.658,2.802 0.164,0.261 0.328,0.521 0.492,0.782 0.923,0.553 1.541,1.412 2.215,2.219 5.267,4.253 11.62,6.062 17.895,8.117 3.153,1.033 6.331,0.826 9.525,1.023 4.898,0.304 9.777,0.593 14.657,-0.219 7.515,-1.251 14.269,-4.399 20.494,-8.612 7.525,-5.091 14.429,-11.029 21.718,-16.449 2.08,-1.547 3.648,-3.6 4.963,-5.798 7.076,-11.834 7.617,-23.882 0.187,-35.646 -5.889,-9.325 -9.388,-19.356 -10.442,-30.215 -0.931,-9.589 -0.756,-19.163 1.158,-28.708 1.217,-6.071 2.32,-12.157 4.08,-18.096 2.166,-7.306 5.098,-14.315 8.387,-21.179 0.87,-1.816 2.552,-3.139 3.117,-5.139 -0.389,-0.67 -0.777,-1.339 -1.165,-2.008 -6.107,-7.696 -13.611,-13.881 -21.443,-19.691 -3.698,-2.744 -8.039,-4.304 -12.225,-6.107 -7.835,-3.375 -15.802,-6.398 -24.098,-8.475 -0.189,-0.066 -0.376,-0.148 -0.575,-0.175 -3.651,-0.495 -3.647,-0.494 -3.647,-4.274 10e-4,-6.288 0.033,-12.577 -0.032,-18.865 -0.009,-0.92 0.486,-2.217 -1.063,-2.57 -0.187,0.524 -0.128,1.069 -0.104,1.601 0.301,6.65 -0.614,13.273 -0.455,19.922 0.054,2.231 -0.2,2.313 -2.525,1.953 -9.101,-1.411 -18.202,-2.847 -27.456,-2.707 -0.998,0.015 -2.037,-0.121 -2.896,0.593 -0.118,1.455 -0.179,2.919 -0.373,4.364 -0.176,1.314 -0.651,2.572 -2.254,2.569 -1.603,-0.003 -2.072,-1.263 -2.246,-2.577 -0.191,-1.445 -0.253,-2.908 -0.372,-4.364 -9.881,0.178 -19.734,0.905 -29.328,3.304 -8.995,2.248 -18.283,2.644 -27.271,4.825 -2.614,0.634 -5.196,1.316 -7.679,2.374 -1.018,0.434 -1.957,1.235 -3.198,0.973 -2.265,0.651 -4.46,1.467 -6.446,2.767 -0.508,0.377 -1.065,0.662 -1.663,0.872 -0.729,0.358 -1.491,0.664 -2.074,1.261 -0.36,0.505 -0.796,0.907 -1.437,1.029 -1.765,1.226 -3.395,2.555 -3.697,4.887 0.019,0.213 0.038,0.425 0.058,0.638 1.081,0.207 2.038,-0.037 2.858,-0.779 -0.263,-0.697 0.012,-0.918 0.725,-0.96 5.497,-0.325 10.975,-0.898 16.47,-1.288 10.407,-0.739 20.817,-0.755 31.234,-0.751 1.682,0.001 3.332,-0.361 5.019,-0.423 7.369,-0.273 14.593,1.107 21.886,1.694 8.383,0.673 16.092,3.703 23.975,6.107 3.379,1.03 6.275,3.345 9.298,5.216 7.341,4.541 14.223,9.729 20.425,15.735 4.993,4.836 9.007,10.511 12.899,16.244 2.115,3.115 4.066,6.341 6.128,9.492 7.245,11.074 10.534,23.24 9.498,36.408 -0.402,5.103 -2.098,9.997 -5.042,14.327 -0.529,0.778 -1.127,1.519 -1.57,2.346 -3.284,6.14 -8.744,9.708 -14.836,12.472 -2.817,1.277 -5.669,2.487 -8.444,3.845 -5.16,2.525 -10.73,3.348 -16.289,4.39 -5.514,1.033 -11.011,1.769 -16.625,1.5 C 6.99,-7.862 5.983,-7.872 4.976,-7.962 4.438,-8.011 3.704,-8.228 3.637,-7.272 c 0.004,0.38 0.008,0.759 0.013,1.139 0.662,0.869 0.611,1.59 -0.436,2.106 -0.26,0.263 -0.519,0.526 -0.778,0.789 -0.395,0.546 -0.83,1.061 -1.239,1.596 C 0.798,-1.095 0.399,-0.547 0,0"
         style="fill:#bfd760;fill-opacity:1;fill-rule:nonzero;stroke:none"
         id="path1254"
         inkscape:connector-curvature="0" />
    </g>
    <g
       id="g1256"
       transform="matrix(1.25,0,0,-1.25,70.867721,943.30395)">
      <path
         d="m 0,0 c -0.985,0.036 -1.949,0.153 -2.782,0.748 -0.282,0.713 -0.566,1.427 -0.849,2.14 0.107,0.544 -0.15,1.175 0.392,1.612 0.97,2.55 1.699,5.191 2.922,7.643 l -0.03,-0.042 c 0.259,0.695 0.335,1.465 0.84,2.06 L 0.462,14.118 c 0.267,1.02 0.737,1.953 1.229,2.876 l -0.027,-0.04 c 0.264,1.017 0.807,1.922 1.17,2.898 0.129,0.295 0.258,0.59 0.387,0.885 0.436,0.574 0.413,1.357 0.876,1.919 L 4.073,22.62 c 0.465,1.253 0.755,2.58 1.561,3.689 0.107,0.046 0.131,0.119 0.07,0.22 0.348,0.897 0.854,1.721 1.202,2.618 0.138,0.201 0.276,0.401 0.415,0.602 0.473,1.172 1.142,2.253 1.595,3.435 0.452,1.091 0.904,2.182 1.356,3.274 1.323,0.191 1.269,-0.927 1.513,-1.673 0.54,-1.651 0.999,-3.328 2.084,-5.108 3.579,5.412 6.611,10.911 10.041,16.155 0.941,1.456 1.88,2.913 2.806,4.377 0.864,1.365 0.689,2.351 -0.122,3.63 -1.414,2.233 -3.135,4.39 -2.97,7.287 0.097,2.683 1.733,4.652 3.121,6.736 l -0.032,-0.039 c 0.351,0.933 0.973,1.7 1.534,2.504 3.219,5.716 7.551,10.629 11.44,15.861 1.462,0.077 1.195,-1.097 1.149,-1.833 -0.226,-3.543 1.241,-6.536 2.926,-9.459 1.059,-1.837 1.387,-1.897 2.713,-0.354 2.793,3.253 5.79,6.321 8.547,9.606 1.114,1.446 2.464,2.667 3.763,3.931 0.995,0.969 1.223,1.977 0.716,3.273 -1.54,3.943 -2.027,8.059 -1.899,12.267 0.037,1.227 0.205,2.411 0.883,3.47 l 0.867,1.17 c 0.724,0.485 1.289,1.164 2.015,1.646 0.137,0.131 0.274,0.261 0.41,0.391 0.537,0.369 1.036,0.784 1.513,1.227 2.78,2.468 5.763,4.656 8.994,6.501 0.491,0.371 1.098,0.489 1.637,0.756 2.808,1.556 5.843,2.554 8.852,3.618 1.57,0.251 3.104,0.645 4.599,1.186 0.216,0.131 0.431,0.262 0.647,0.393 0.435,0.469 0.978,0.355 1.474,0.205 2.169,-0.657 4.411,-0.758 6.643,-0.924 5.627,-2.081 9.523,-5.861 11.431,-11.62 1.098,-3.315 2.267,-6.607 2.856,-10.023 0.663,-0.312 0.907,0.228 1.243,0.483 4.601,3.5 8.655,7.672 13.414,10.977 1.423,0.989 2.722,2.225 4.532,2.537 2.905,-0.106 4.789,-2.046 6.792,-3.776 0.768,-1.312 0.069,-2.197 -0.947,-2.875 -8.833,-5.9 -16.606,-13.121 -24.781,-19.842 -0.751,-0.617 -1.228,-1.38 -1.618,-2.257 -1.226,-2.757 -2.481,-5.504 -4.235,-7.986 -0.303,-0.316 -0.676,-0.503 -1.094,-0.613 -5.502,-2.678 -11.411,-3.52 -17.391,-3.144 -3.905,0.246 -6.526,-1.234 -8.707,-4.136 -0.321,-0.428 -0.635,-0.863 -0.983,-1.271 -3.367,-3.635 -6.566,-7.418 -9.737,-11.184 1.564,0.134 2.991,-0.588 4.485,-0.921 4.499,-1.003 9.051,-0.88 13.605,-0.876 0.992,10e-4 2.018,0.171 2.956,-0.345 0.662,-0.798 0.128,-1.45 -0.392,-1.925 -1.316,-1.204 -0.974,-2.455 -0.392,-3.846 3.945,-9.423 7.355,-19.059 11.351,-28.465 1.387,-3.263 2.522,-6.638 3.783,-9.96 -0.174,-0.536 -0.551,-0.939 -1.03,-1.157 -2.448,-1.114 -4.803,-2.486 -7.542,-2.828 -0.973,0.317 -1.176,1.22 -1.501,2.015 -1.575,3.857 -2.399,7.972 -4.049,11.804 -3,6.968 -5.311,14.206 -8.282,21.185 -0.731,1.718 -0.916,1.74 -2.33,0.395 -4.225,-4.023 -8.331,-8.179 -13.104,-11.585 -1.101,-0.786 -2.246,-1.467 -3.496,-1.975 -2.455,-0.526 -4.792,0.038 -7.056,0.893 -2.813,1.063 -5.611,2.193 -8.225,3.687 -1.428,0.817 -2.526,0.99 -3.551,-0.56 -0.47,-0.712 -1.194,-1.255 -1.806,-1.87 -4.484,-4.633 -8.69,-9.514 -12.871,-14.418 -0.782,-0.916 -0.605,-1.357 0.481,-1.671 1.811,-0.524 3.687,-0.755 5.503,-1.262 1.996,-0.615 3.052,-1.971 3.524,-4.005 0.499,-2.156 1.154,-4.28 1.954,-6.357 C 39.709,2.449 39.366,2.029 37.132,1.945 35.794,1.894 34.44,2.1 33.124,1.697 32.47,1.568 31.816,1.522 31.166,1.711 29.728,2.619 29.754,4.228 29.421,5.606 28.379,9.909 28.414,9.947 24.37,8.27 20.651,6.728 17.097,4.823 13.375,3.273 10.459,2.058 7.56,0.864 4.41,0.413 2.956,0.097 1.556,-0.792 0,0"
         style="fill:#604848;fill-opacity:1;fill-rule:nonzero;stroke:none"
         id="path1258"
         inkscape:connector-curvature="0" />
    </g>
    <g
       id="g1260"
       transform="matrix(1.25,0,0,-1.25,73.954221,950.24145)">
      <path
         d="M 0,0 C 0.656,-0.413 1.312,-0.827 1.968,-1.24 1.957,-2.382 0.963,-2.903 0.387,-3.673 c -3.266,-4.364 -7.094,-8.257 -10.528,-12.484 -4.969,-6.117 -9.319,-12.672 -13.873,-19.088 -4.36,-6.14 -8.374,-12.522 -12.966,-18.498 -0.57,-0.741 -1.247,-1.455 -0.979,-2.527 -1.846,-0.599 -3.097,-2.083 -4.634,-3.138 -4.451,-3.056 -7.089,-2.866 -10.909,0.864 -1.001,0.978 -1.741,2.055 -1.521,3.549 0.655,1.02 1.245,2.074 1.6,3.238 1.64,5.375 4.935,9.62 9.048,13.315 7.338,6.591 14.24,13.68 21.857,19.94 7.363,6.052 14.454,12.426 21.954,18.311 C -0.405,-0.066 -0.204,-0.017 0,0"
         style="fill:#798f48;fill-opacity:1;fill-rule:nonzero;stroke:none"
         id="path1262"
         inkscape:connector-curvature="0" />
    </g>
    <g
       id="g1264"
       transform="matrix(1.25,0,0,-1.25,78.479971,952.77065)">
      <path
         d="M 0,0 C 1.996,-1.315 4.522,-1.553 6.388,-3.134 2.543,-8.46 -0.389,-14.372 -4.348,-19.638 c -5.441,-7.239 -10.465,-14.774 -15.526,-22.286 -2.117,-3.141 -4.906,-5.859 -7.579,-8.585 -2.237,-2.281 -5.033,-3.493 -8.357,-3.228 -1.535,0.122 -3.085,0.055 -4.628,0.074 -0.223,0.758 0.248,1.279 0.635,1.82 8.135,11.359 15.981,22.923 24.296,34.154 2.964,4.003 6.414,7.58 9.776,11.235 C -3.783,-4.336 -2.343,-1.767 0,0"
         style="fill:#798f48;fill-opacity:1;fill-rule:nonzero;stroke:none"
         id="path1266"
         inkscape:connector-curvature="0" />
    </g>
    <g
       id="g1268"
       transform="matrix(1.25,0,0,-1.25,67.319351,943.16685)">
      <path
         d="m 0,0 c 1.078,-1.747 2.122,-3.523 4.043,-4.515 0.129,-0.492 -0.219,-0.747 -0.529,-0.986 -6.11,-4.718 -12.137,-9.543 -18.019,-14.542 -4.6,-3.91 -9.305,-7.698 -13.674,-11.879 -4.314,-4.128 -8.705,-8.176 -13.2,-12.11 -1.989,-1.741 -3.363,-3.994 -4.926,-6.089 -0.365,-0.489 -0.414,-1.361 -1.36,-1.199 -0.807,1.915 -1.668,3.809 -2.405,5.75 -0.707,1.862 -0.467,3.541 0.709,5.302 4.052,6.066 9.904,10.175 15.565,14.444 9.909,7.473 20.273,14.344 29.547,22.653 C -2.948,-2.006 -2.05,-0.196 0,0"
         style="fill:#798f48;fill-opacity:1;fill-rule:nonzero;stroke:none"
         id="path1270"
         inkscape:connector-curvature="0" />
    </g>
    <g
       id="g1272"
       transform="matrix(1.25,0,0,-1.25,7.7382211,1007.3168)">
      <path
         d="m 0,0 c 4.14,7.119 10.904,11.706 16.63,17.302 3.799,3.712 7.821,7.153 11.845,10.61 5.595,4.806 11.238,9.544 17.09,14.035 2.071,1.588 4.097,3.237 6.143,4.858 0.816,0.055 1.182,-0.389 1.265,-1.145 C 50.39,42.724 47.092,40.611 44.178,38.054 39.249,33.73 34.227,29.508 29.182,25.318 21.805,19.191 15.108,12.32 7.946,5.955 4.546,2.933 1.856,-0.78 0.326,-5.233 -0.175,-6.692 -0.061,-8.675 -2.05,-9.334 -2.812,-8.71 -2.664,-7.832 -2.441,-7.119 -1.692,-4.726 -1.364,-2.182 0,0"
         style="fill:#604848;fill-opacity:1;fill-rule:nonzero;stroke:none"
         id="path1274"
         inkscape:connector-curvature="0" />
    </g>
    <g
       id="g1276"
       transform="matrix(1.25,0,0,-1.25,78.479971,952.77065)">
      <path
         d="m 0,0 c -1.203,-2.348 -3.055,-4.264 -4.818,-6.099 -7.743,-8.059 -14.248,-17.042 -20.54,-26.227 -4.694,-6.853 -9.642,-13.532 -14.47,-20.293 -0.233,-0.327 -0.408,-0.695 -0.609,-1.044 -0.381,-0.194 -0.761,-0.389 -1.142,-0.583 -1.118,0.322 -0.935,0.905 -0.349,1.615 4.859,5.895 8.778,12.463 13.214,18.662 4.315,6.031 8.309,12.309 12.938,18.107 4.539,5.683 9.403,11.107 14.124,16.645 C -0.946,0.85 -0.351,0.682 0,0"
         style="fill:#604948;fill-opacity:1;fill-rule:nonzero;stroke:none"
         id="path1278"
         inkscape:connector-curvature="0" />
    </g>
    <g
       id="g1280"
       transform="matrix(1.25,0,0,-1.25,216.9506,966.78725)"
       style="fill:#ff8f00;fill-opacity:1">
      <path
         d="M 0,0 C -0.004,0.513 2.001,1.307 2.594,1.273 4.091,1.189 5.622,2.034 7.086,1.133 7.06,-5.564 7.027,-12.262 7.008,-18.959 c -0.011,-3.954 0.004,-7.907 0.001,-11.861 -0.003,-2.547 0.105,-2.628 2.561,-1.729 0.308,0.113 0.586,0.305 0.878,0.461 6.781,1.816 13.699,2.178 20.674,1.947 0.534,-0.018 1.075,0.006 1.601,-0.068 1.049,-0.15 2.015,-0.572 2.252,-1.692 0.254,-1.197 -0.529,-1.836 -1.59,-2.177 -1.915,-0.516 -3.872,-0.375 -5.82,-0.37 0.583,-0.025 1.166,-0.004 1.753,-0.015 0.905,0.018 1.764,-0.082 2.367,-0.874 l -0.007,0.011 c 0.687,-0.267 1.443,-0.363 2.051,-0.826 4.174,-1.818 7.593,-4.786 11.226,-7.421 1.576,-1.143 1.942,-2.691 0.981,-3.785 -1.199,-1.365 -2.494,-0.958 -3.759,-0.039 -1.25,0.908 -2.58,1.724 -3.737,2.737 -3.819,3.348 -8.304,5.012 -13.264,5.812 -5.163,0.834 -10.317,1.332 -15.581,0.896 3.901,-1.583 7.786,-3.176 11.573,-4.986 2.846,-1.36 5.657,-2.8 8.436,-4.293 1.358,-0.73 2.28,-1.879 1.34,-3.468 -0.868,-1.468 -2.179,-1.268 -3.52,-0.562 -6.658,3.506 -13.414,6.801 -20.401,9.617 -1.537,0.619 -3.096,1.387 -4.202,2.696 -0.757,0.896 -1.618,0.552 -2.404,0.371 -3.989,-0.921 -7.963,-1.905 -11.933,-2.903 -0.915,-0.23 -1.809,-0.54 -2.765,-0.413 -0.865,0.116 -1.568,0.485 -1.648,1.467 -0.07,0.868 0.447,1.338 1.22,1.624 1.002,0.37 2.033,0.693 2.861,1.419 2.632,1.364 5.549,1.834 8.373,2.549 1.348,0.341 2.63,0.957 4.068,1.011 0.956,0.037 1.078,0.817 1.071,1.624 C 1.645,-30.251 0.054,-6.226 0,0"
         style="fill:#ff8f00;fill-opacity:1;fill-rule:nonzero;stroke:none"
         id="path1282"
         inkscape:connector-curvature="0" />
    </g>
    <g
       id="g1284"
       transform="matrix(1.25,0,0,-1.25,191.51685,789.76495)">
      <path
         d="m 0,0 c -2.884,0.005 -5.743,0.2 -8.5,1.146 0.536,1.2 0.99,2.47 2.449,2.887 1.026,-0.769 2.065,0.014 3.085,0.039 C 2.49,4.203 7.9,4.116 13.261,2.841 c 3.123,-0.742 6.334,-1.109 9.497,-1.689 3.335,-0.612 6.4,-2.015 9.471,-3.375 3.073,-1.361 6.183,-2.655 9.169,-4.188 5.556,-2.852 10.332,-6.466 13.71,-12.031 2.688,-4.428 5.045,-8.865 6.069,-13.927 1.244,-6.146 0.774,-12.282 -0.348,-18.403 -1.81,-9.876 -6.586,-18.375 -12.077,-26.588 -4.559,-6.819 -9.079,-13.669 -14.795,-19.589 -4.534,-4.696 -9.728,-8.649 -14.997,-12.49 -4.518,-3.292 -9.348,-6.1 -14.203,-8.833 -3.345,-1.884 -7.28,-2.309 -10.862,-3.637 -8.556,-3.17 -17.585,-3.563 -26.5,-4.473 -11.804,-1.204 -23.635,0.331 -35.465,0.136 -6.49,-0.106 -13,0.618 -19.491,1.103 -2.939,0.219 -5.86,0.694 -8.816,0.754 -0.597,0.012 -1.198,0.122 -1.586,0.705 0.191,0.794 1.118,0.324 1.444,0.853 1.457,0.284 2.915,0.568 4.373,0.853 2.375,0.258 4.734,0.662 7.136,0.656 5.681,-0.015 11.371,-0.192 17.013,0.709 0.887,0.142 1.717,-0.166 2.579,-0.182 0.686,0.035 1.372,0.071 2.058,0.106 9.017,0.71 18.048,0.651 27.082,0.55 2.542,-0.028 5.09,-0.236 7.623,0.155 0.472,0.117 0.953,0.178 1.439,0.179 4.648,-0.251 9.077,0.854 13.44,2.273 3.004,0.976 6.117,1.602 9.036,2.845 0.635,0.27 1.308,0.261 1.976,0.297 2.851,1.13 5.822,1.994 8.379,3.775 0.27,0.6 0.803,0.885 1.373,1.098 5.458,2.039 9.843,5.606 13.86,9.704 1.546,1.577 3.135,3.112 4.666,4.703 1.955,2.549 4.39,4.643 6.584,6.967 6.104,6.108 11.788,12.54 15.753,20.307 4.098,7.166 6.467,14.925 7.52,23.05 0.561,4.327 0.425,8.721 -0.486,13.04 -0.296,1.403 -0.947,2.651 -1.704,3.849 -2.918,5.823 -6.858,10.831 -11.941,14.924 -0.631,0.508 -1.062,1.184 -1.581,1.787 -2.122,1.287 -3.817,3.362 -6.538,3.543 -1.044,0.224 -2.049,0.538 -3.022,1.007 -4.958,2.388 -10.222,3.629 -15.686,4.086 -0.871,0.072 -1.743,0.196 -2.582,0.409 C 7.935,-1.152 3.948,-0.689 0,0"
         style="fill:#efefd7;fill-opacity:1;fill-rule:nonzero;stroke:none"
         id="path1286"
         inkscape:connector-curvature="0" />
    </g>
    <g
       id="g1288"
       transform="matrix(1.25,0,0,-1.25,139.8456,838.66715)">
      <path
         d="m 0,0 c -3.132,-3.575 -6.276,-7.14 -9.385,-10.736 -0.538,-0.622 -0.945,-0.692 -1.394,0.006 -2.191,3.402 -4.289,6.831 -4.121,11.122 0.027,0.71 0.522,1.659 -0.596,2.085 3.057,3.472 6.113,6.942 9.169,10.412 1.029,-0.054 0.884,-0.904 0.883,-1.489 C -5.451,7.098 -3.664,3.656 -0.522,0.833 -0.269,0.606 -0.067,0.344 0,0"
         style="fill:#bfd760;fill-opacity:1;fill-rule:nonzero;stroke:none"
         id="path1290"
         inkscape:connector-curvature="0" />
    </g>
    <g
       id="g1292"
       transform="matrix(1.25,0,0,-1.25,139.8456,838.66725)">
      <path
         d="m 0,0 c -3.719,2.392 -5.479,5.911 -5.912,10.211 -0.091,0.897 0.389,1.891 -0.415,2.678 0.76,2.108 2.504,3.428 3.976,4.967 1.239,1.297 2.465,2.607 3.697,3.911 0.315,0.485 0.713,0.887 1.202,1.199 0.158,0.308 0.436,0.399 0.755,0.414 C 2.274,17.67 3.17,12.168 5.164,6.805 5.462,6.002 5.471,5.453 4.837,4.839 3.2,3.252 1.609,1.616 0,0"
         style="fill:#efefd7;fill-opacity:1;fill-rule:nonzero;stroke:none"
         id="path1294"
         inkscape:connector-curvature="0" />
    </g>
    <g
       id="g1296"
       transform="matrix(1.25,0,0,-1.25,101.17472,886.19545)">
      <path
         d="m 0,0 c -3.416,-5.646 -6.833,-11.293 -10.401,-17.19 -1.242,2.128 -1.934,4.115 -2.53,6.137 -0.208,0.705 -0.244,1.471 -1.044,1.822 1.763,4.33 3.927,8.457 6.272,12.492 0.61,0.146 0.863,-0.321 1.063,-0.714 1.317,-2.582 3.393,-3.233 6.062,-2.462 C -0.382,0.142 -0.183,0.098 0,0"
         style="fill:#bfd760;fill-opacity:1;fill-rule:nonzero;stroke:none"
         id="path1298"
         inkscape:connector-curvature="0" />
    </g>
    <g
       id="g1300"
       transform="matrix(1.25,0,0,-1.25,101.17472,886.19545)">
      <path
         d="m 0,0 c -2.279,-1.51 -5.327,-0.787 -6.675,1.577 -0.326,0.571 -0.684,1.123 -1.027,1.684 0.599,3.043 2.785,5.261 4.143,7.91 0.753,1.472 1.812,2.787 2.733,4.172 0.129,0.191 0.262,0.194 0.4,0.009 C 0.048,12.348 1.711,9.914 3.376,7.487 3.813,6.851 4.18,6.322 3.634,5.516 2.399,3.694 1.548,1.619 0,0"
         style="fill:#efefd7;fill-opacity:1;fill-rule:nonzero;stroke:none"
         id="path1302"
         inkscape:connector-curvature="0" />
    </g>
    <g
       id="g1304"
       transform="matrix(1.25,0,0,-1.25,299.47147,920.01885)">
      <path
         d="m 0,0 c -1.638,1.534 -2.843,3.391 -3.815,5.381 -5.538,11.343 -9.397,23.22 -11.807,35.628 -1.896,9.764 -2.702,19.582 -1.986,29.449 0.846,11.661 3.986,22.696 10.538,32.589 8.256,12.468 6.903,27.68 -2.395,39.129 -1.551,1.909 -3.651,3.162 -5.562,4.63 -6.012,4.623 -11.907,9.423 -18.152,13.712 -7.43,5.104 -15.493,8.764 -24.773,9.216 -3.849,0.188 -7.669,-0.654 -11.411,-0.33 -6.575,0.567 -12.146,-2.317 -18.01,-4.241 -3.077,-1.009 -5.721,-2.917 -8.333,-4.81 -0.411,-0.045 -0.549,0.223 -0.632,0.553 0.428,1.829 2.021,2.651 3.357,3.541 8.115,5.406 17.033,8.349 26.812,9.015 5.203,0.354 10.321,0.271 15.455,-0.487 1.469,-0.216 2.948,-0.486 4.311,-1.025 6.798,-2.69 13.82,-4.701 20.386,-8.125 6.671,-3.479 12.821,-7.652 18.754,-12.132 4.272,-3.226 8,-7.188 10.914,-11.784 0.457,-0.423 0.545,-1.18 1.246,-1.389 2.765,-4.336 5.567,-8.654 6.864,-13.724 0.512,-0.447 -0.049,-1.158 0.399,-1.62 0.166,-2.118 0.89,-4.086 1.618,-6.053 0.404,-0.799 0.102,-1.654 0.194,-2.476 -1.08,-1.933 -3.029,-2.859 -4.846,-3.748 -3.373,-1.65 -5.863,-4.228 -8.254,-6.975 -1.413,-2.069 -2.776,-4.167 -3.818,-6.457 -4.01,-5.906 -5.724,-12.714 -7.65,-19.439 -0.093,-0.324 -0.183,-0.648 -0.293,-0.969 -0.871,-2.384 -0.804,-4.924 -0.871,-7.362 -0.175,-6.363 -0.987,-12.733 -0.453,-19.087 0.488,-5.813 1.56,-11.561 3.651,-17.058 C -6.546,25.272 -3.846,17.24 0.04,9.623 0.959,7.823 2.294,6.308 3.23,4.533 2.245,2.957 1.437,1.254 0,0"
         style="fill:#efefd7;fill-opacity:1;fill-rule:nonzero;stroke:none"
         id="path1306"
         inkscape:connector-curvature="0" />
    </g>
    <g
       id="g1308"
       transform="matrix(1.25,0,0,-1.25,304.00772,745.91265)">
      <path
         d="m 0,0 c -2.553,3.629 -5.447,6.992 -8.75,9.927 -4.623,4.108 -9.732,7.63 -15.001,10.836 -8.357,5.083 -17.43,8.665 -26.773,11.458 -8.144,2.434 -16.466,1.96 -24.786,0.8 -7.262,-1.012 -13.799,-3.874 -20.008,-7.595 -1.696,-1.017 -3.335,-2.181 -4.457,-3.894 -0.079,-0.349 -0.326,-0.597 -0.646,-0.46 -0.328,0.139 -0.319,0.478 -0.081,0.763 0.269,1.208 0.992,2.188 1.615,3.217 0.314,0.6 0.879,1.022 1.162,1.643 0.151,0.259 0.302,0.518 0.453,0.776 0.35,0.599 0.847,1.089 1.237,1.658 0.529,0.566 1.059,1.133 1.588,1.7 1.047,1.226 2.246,2.308 3.344,3.485 l -0.03,-0.04 c 1.608,1.843 3.613,3.183 5.656,4.475 l -0.039,-0.029 c 1.519,1.104 3.18,1.921 4.976,2.466 0.208,0.134 0.415,0.268 0.622,0.402 1.439,0.721 2.922,1.322 4.512,1.625 l -0.037,-0.025 c 1.375,0.822 2.967,0.868 4.465,1.25 L -71.01,44.42 c 1.721,0.556 3.532,0.53 5.296,0.812 l -0.041,-0.031 c 3.171,0.602 6.409,0.488 9.547,0.172 4.076,-0.411 8.182,-0.898 12.179,-1.928 0.698,-0.18 1.459,-0.182 2.05,-0.686 l -0.04,0.034 c 1.672,-0.431 3.379,-0.759 4.879,-1.686 0.307,-0.43 0.763,-0.276 1.174,-0.3 0.572,-0.254 1.253,-0.294 1.669,-0.854 3.99,-2.686 7.981,-5.372 11.971,-8.058 0.843,-0.367 1.579,-0.879 2.167,-1.592 l -0.014,0.012 c 0.592,-0.398 1.218,-0.755 1.596,-1.396 0.241,-0.218 0.481,-0.435 0.722,-0.653 0.835,-0.3 1.402,-0.868 1.704,-1.702 1.294,-1.319 2.588,-2.637 3.883,-3.955 0.631,-0.396 1.041,-0.978 1.364,-1.632 l -0.028,0.035 c 0.961,-0.982 1.778,-2.072 2.437,-3.279 l -0.029,0.038 c 0.513,-0.479 0.956,-1.012 1.282,-1.637 0.209,-0.264 0.418,-0.528 0.628,-0.792 1.607,-1.602 2.599,-3.572 3.387,-5.664 L -3.253,9.711 C -1.779,6.991 -0.624,4.133 0.448,1.238 0.441,1.118 0.449,0.998 0.472,0.88 0.717,0.371 0.747,-0.023 0,0"
         style="fill:#604848;fill-opacity:1;fill-rule:nonzero;stroke:none"
         id="path1310"
         inkscape:connector-curvature="0" />
    </g>
    <g
       id="g1312"
       transform="matrix(1.25,0,0,-1.25,300.20635,789.78845)">
      <path
         d="m 0,0 c 2.086,2.815 4.515,5.212 7.696,6.823 1.883,0.953 3.644,2.146 5.46,3.231 0.767,-0.986 1.254,-2.108 1.604,-3.297 0.013,-0.621 0.319,-1.1 0.735,-1.526 0.614,-0.365 0.616,-1.069 0.9,-1.618 L 16.379,3.636 C 16.867,3.188 16.976,2.558 17.174,1.972 L 17.148,2.01 c 0.465,-0.643 0.6,-1.415 0.837,-2.148 0.262,-1.91 0.914,-3.716 1.495,-5.54 0.689,-0.858 0.611,-1.959 0.93,-2.935 -0.034,-1.247 0.328,-2.395 0.882,-3.494 0.422,-0.799 -0.078,-1.723 0.343,-2.522 0.021,-0.505 0.043,-1.011 0.064,-1.516 0.434,-0.937 -0.101,-1.987 0.34,-2.924 0.018,-0.234 0.037,-0.469 0.055,-0.703 -0.023,-0.661 -0.047,-1.322 -0.07,-1.984 -2.063,1.06 -3.393,2.924 -4.882,4.58 -2.96,3.293 -6.031,6.463 -9.39,9.348 C 6.376,-6.645 5.085,-5.371 3.879,-4.029 2.631,-2.638 1.42,-1.221 0,0"
         style="fill:#798f48;fill-opacity:1;fill-rule:nonzero;stroke:none"
         id="path1314"
         inkscape:connector-curvature="0" />
    </g>
    <g
       id="g1316"
       transform="matrix(1.25,0,0,-1.25,169.42085,744.73485)"
       style="fill:#ff8f00;fill-opacity:1">
      <path
         d="m 0,0 c 0.455,-3.356 0.865,-6.703 1.693,-10.016 1.129,-4.522 2.501,-8.882 5.216,-12.728 0.148,-0.209 0.187,-0.495 0.277,-0.746 -0.948,-0.533 -1.917,-0.384 -2.932,-0.19 -5.465,1.045 -10.938,2.048 -16.408,3.065 l -10e-4,-0.017 c -0.943,0.218 -1.68,0.688 -2.012,1.65 l 0.036,-0.051 c -0.756,0.921 0.158,1.608 0.337,2.398 0.256,0.399 0.513,0.798 0.769,1.196 0.494,0.727 1.054,1.396 1.719,1.974 l -0.03,-0.038 c 0.357,1.064 1.456,1.552 1.945,2.514 0.404,0.539 0.808,1.079 1.212,1.618 0.6,0.882 1.418,1.571 2.096,2.385 L -6.11,-7.019 c 0.258,0.661 0.817,1.109 1.191,1.687 1.067,1.226 2.134,2.452 3.201,3.677 C -1.198,-1.049 -0.763,-0.354 0,0"
         style="fill:#ff8f00;fill-opacity:1;fill-rule:nonzero;stroke:none"
         id="path1318"
         inkscape:connector-curvature="0" />
    </g>
    <g
       id="g1320"
       transform="matrix(1.25,0,0,-1.25,304.00772,745.91265)">
      <path
         d="M 0,0 C 0.353,0.188 0.409,0.536 0.472,0.88 0.737,0.332 1.003,-0.216 1.268,-0.765 0.473,-1.126 0.327,-0.414 0,0"
         style="fill:#877571;fill-opacity:1;fill-rule:nonzero;stroke:none"
         id="path1322"
         inkscape:connector-curvature="0" />
    </g>
    <g
       id="g1324"
       transform="matrix(1.25,0,0,-1.25,303.50935,914.35295)">
      <path
         d="m 0,0 c -1.502,0.778 -2.284,2.243 -2.984,3.605 -4.079,7.933 -7.333,16.184 -9.089,24.97 2.219,1.546 3.468,3.91 4.851,6.088 2.845,4.48 5.92,8.793 8.967,13.13 1.424,2.026 1.426,2.237 -0.108,4.185 -5.064,6.428 -10.063,12.91 -15.242,19.247 -0.438,0.536 -0.772,1.085 -0.821,1.784 1.88,7.055 3.612,14.169 7.953,20.259 1.916,-0.958 3.154,-2.671 4.551,-4.181 4.832,-5.222 9.859,-10.26 14.555,-15.612 1.813,-2.066 3.274,-4.431 5.391,-6.246 0.719,-0.616 1.955,-0.786 2.01,-2.066 -0.12,-1.695 0.253,-3.41 -0.236,-5.085 -0.087,-0.086 -0.095,-0.179 -0.024,-0.279 -0.447,-0.924 -0.342,-1.922 -0.392,-2.9 l 0.021,10e-4 c -0.491,-0.755 0.18,-1.717 -0.437,-2.45 l 0.025,0.033 c -0.462,-0.766 0.16,-1.711 -0.408,-2.46 L 18.6,52.049 C 18.086,51.005 18.771,49.813 18.195,48.776 18.106,48.687 18.102,48.593 18.183,48.495 17.918,47.742 17.929,46.988 18.18,46.234 18.179,45.649 18.178,45.065 18.177,44.48 17.753,43.678 18.329,42.708 17.75,41.932 l 0.026,0.036 C 17.462,40.754 17.517,39.454 16.932,38.302 12.848,24.845 7.124,12.113 0,0"
         style="fill:#798f48;fill-opacity:1;fill-rule:nonzero;stroke:none"
         id="path1326"
         inkscape:connector-curvature="0" />
    </g>
    <g
       id="g1328"
       transform="matrix(1.25,0,0,-1.25,328.20747,832.14945)">
      <path
         d="m 0,0 c -2.167,0.463 -3.356,2.23 -4.549,3.769 -3.167,4.085 -6.693,7.849 -10.228,11.587 -3.823,4.044 -7.697,8.042 -11.454,12.149 0.954,2.321 2.225,4.452 3.83,6.384 0.911,-0.14 1.657,-0.618 2.186,-1.324 2.717,-3.622 6.401,-6.266 9.507,-9.491 3.479,-3.613 6.89,-7.292 10.331,-10.941 C 0.028,10.622 -0.566,9.027 0.011,7.531 -0.074,7.429 -0.064,7.339 0.042,7.259 0.386,4.838 0.481,2.417 0,0"
         style="fill:#604848;fill-opacity:1;fill-rule:nonzero;stroke:none"
         id="path1330"
         inkscape:connector-curvature="0" />
    </g>
    <g
       id="g1332"
       transform="matrix(1.25,0,0,-1.25,207.0986,768.06435)">
      <path
         d="m 0,0 c -6.855,-0.157 -13.062,2.022 -18.395,6.085 -5.194,3.957 -8.89,12.74 -5.839,20.051 2.065,4.951 5.634,8.01 9.758,10.835 C -5.991,42.784 3.276,43.967 13,41.183 19.193,39.41 24.165,35.948 26.184,29.325 27.33,25.563 26.546,21.978 25.228,18.502 21.623,8.992 14.905,2.845 5.015,0.25 3.357,-0.185 1.675,0.005 0,0"
         style="fill:#efefd7;fill-opacity:1;fill-rule:nonzero;stroke:none"
         id="path1334"
         inkscape:connector-curvature="0" />
    </g>
    <g
       id="g1336"
       transform="matrix(1.25,0,0,-1.25,251.61747,875.08295)">
      <path
         d="m 0,0 c -1.489,-3.303 -3.284,-6.473 -5.758,-9.089 -3.433,-3.629 -5.858,-8.15 -9.953,-11.177 -0.891,0.504 -1.109,1.492 -1.598,2.276 -6.852,10.984 -12.397,22.646 -17.774,34.394 -0.925,2.02 -1.999,3.967 -2.942,5.977 -0.454,0.966 -1.263,1.546 -2.018,2.205 1.586,2.799 3.214,5.577 4.326,8.614 0.476,1.3 1.751,1.803 2.667,2.664 4.394,4.13 9.3,7.646 13.876,11.556 3.16,2.7 6.331,5.361 9.945,7.453 0.797,0.461 1.296,1.186 0.807,2.195 C -2.362,52.922 2.02,47.355 5.306,40.859 2.96,40.136 1.52,38.166 -0.287,36.719 -5.436,32.599 -9.62,27.492 -14.26,22.85 -14.998,22.111 -15.048,21.441 -14.45,20.55 -10.6,14.813 -7.4,8.676 -3.612,2.899 -2.705,1.514 -1.762,0.273 0,0"
         style="fill:#798f48;fill-opacity:1;fill-rule:nonzero;stroke:none"
         id="path1338"
         inkscape:connector-curvature="0" />
    </g>
    <g
       id="g1340"
       transform="matrix(1.25,0,0,-1.25,223.8151,908.94625)">
      <path
         d="m 0,0 c -5.96,-6.125 -11.685,-12.56 -20.223,-15.27 -2.011,2.92 -2.684,6.396 -3.979,9.613 -3.923,9.743 -7.773,19.517 -11.763,29.233 -0.648,1.578 -0.502,2.634 0.762,3.668 0.461,0.377 0.899,0.827 0.882,1.511 0.837,1.979 2.358,3.488 3.639,5.147 2.078,2.692 4.109,5.41 5.948,8.269 0.092,0.157 0.199,0.304 0.312,0.446 0.492,0.516 0.921,1.08 1.257,1.715 0.304,0.354 0.553,0.847 1.156,0.477 2.275,-3.9 3.897,-8.114 5.776,-12.2 2.613,-5.684 5.387,-11.273 8.385,-16.764 C -6.014,12.486 -4.758,8.837 -3.19,5.341 -2.323,3.407 -0.992,1.82 0,0"
         style="fill:#798f48;fill-opacity:1;fill-rule:nonzero;stroke:none"
         id="path1342"
         inkscape:connector-curvature="0" />
    </g>
    <g
       id="g1344"
       transform="matrix(1.25,0,0,-1.25,188.06172,932.75245)">
      <path
         d="m 0,0 c -7.889,-2.857 -15.683,-6.105 -24.31,-5.939 -1.348,3.93 -2.639,7.881 -3.622,11.918 -0.94,3.862 -2.32,7.578 -3.586,11.333 -0.432,1.283 -1.112,2.434 -1.847,3.56 -0.111,0.523 0.209,0.803 0.592,1.046 6.459,3.822 11.634,9.173 16.942,14.349 1.248,1.217 1.668,0.754 2.158,-0.516 2.286,-5.931 4.484,-11.9 6.926,-17.767 C -4.504,12.598 -2.878,7.006 -0.899,1.534 -0.692,0.961 -0.507,0.39 0,0"
         style="fill:#798f48;fill-opacity:1;fill-rule:nonzero;stroke:none"
         id="path1346"
         inkscape:connector-curvature="0" />
    </g>
    <g
       id="g1348"
       transform="matrix(1.25,0,0,-1.25,223.8151,908.94625)">
      <path
         d="m 0,0 c -1.524,0.781 -2.358,2.214 -2.963,3.654 -3.19,7.599 -7.032,14.874 -10.701,22.24 -3.104,6.231 -5.752,12.689 -8.602,19.046 -0.358,0.564 -0.058,1.054 0.255,1.464 1.209,1.586 2.163,3.347 3.404,4.909 0.316,0.016 0.621,0.059 0.807,0.364 1.41,0.26 1.864,-0.778 2.336,-1.752 4.006,-8.26 8.087,-16.484 11.975,-24.799 C -0.955,19.705 2.373,14.753 5.251,9.538 5.737,8.657 6.286,7.815 6.531,6.825 4.354,4.55 2.177,2.275 0,0"
         style="fill:#604848;fill-opacity:1;fill-rule:nonzero;stroke:none"
         id="path1350"
         inkscape:connector-curvature="0" />
    </g>
    <g
       id="g1352"
       transform="matrix(1.25,0,0,-1.25,156.18347,940.27375)">
      <path
         d="m 0,0 c -0.955,-0.454 -1.977,-0.267 -2.966,-0.269 -10.71,-0.02 -21.419,-0.013 -32.128,-0.013 1.467,0.724 3.027,0.25 4.539,0.316 0.941,0.041 1.47,0.197 1.001,1.225 -1.2,2.634 -1.868,5.438 -2.59,8.217 -0.429,1.649 -1.891,1.914 -3.023,2.648 5.894,1.531 10.336,5.728 15.564,8.482 1.538,0.955 3.215,1.652 4.768,2.582 0.538,0.322 1.162,0.796 1.79,0.079 C -11.156,16.851 -9.512,10.371 -7.991,3.86 -7.257,0.721 -7.198,0.684 -4.035,0.603 -2.682,0.569 -1.211,1.069 0,0"
         style="fill:#798f48;fill-opacity:1;fill-rule:nonzero;stroke:none"
         id="path1354"
         inkscape:connector-curvature="0" />
    </g>
    <g
       id="g1356"
       transform="matrix(1.25,0,0,-1.25,182.85072,821.59815)">
      <path
         d="m 0,0 c -5.125,-0.467 -10.719,4.172 -10.511,9.282 0.215,5.281 5.815,9.975 12.498,10.101 4.051,0.076 8.201,-4.689 8.132,-9.471 C 10.053,5.367 5.676,-0.529 0,0"
         style="fill:#798f48;fill-opacity:1;fill-rule:nonzero;stroke:none"
         id="path1358"
         inkscape:connector-curvature="0" />
    </g>
    <g
       id="g1360"
       transform="matrix(1.25,0,0,-1.25,191.51685,789.76495)">
      <path
         d="m 0,0 c 2.696,0.232 5.342,-0.003 7.951,-0.755 5.036,-1.449 10.358,-1.291 15.402,-2.747 3.432,-0.991 6.686,-2.352 9.768,-4.141 -2.967,-1.072 -5.254,-3.198 -7.647,-5.105 -3.665,-2.919 -7.173,-6.036 -10.754,-9.06 -0.334,-0.282 -0.606,-0.858 -1.157,-0.558 -0.4,0.218 -0.202,0.725 -0.265,1.106 C 12.42,-15.994 10.833,-10.958 8.11,-6.349 6.255,-3.21 2.903,-1.865 0,0"
         style="fill:#798f48;fill-opacity:1;fill-rule:nonzero;stroke:none"
         id="path1362"
         inkscape:connector-curvature="0" />
    </g>
    <g
       id="g1364"
       transform="matrix(1.25,0,0,-1.25,193.4996,855.86595)">
      <path
         d="m 0,0 c -1.283,-3.034 -3.434,-5.496 -5.45,-8.02 -1.523,-1.907 -2.684,-4.117 -4.619,-5.689 -7.299,-0.388 -14.553,-0.335 -21.75,2.276 3.232,3.965 6.401,7.83 9.901,11.414 0.059,-0.03 0.15,-0.046 0.173,-0.094 0.893,-1.893 1.844,-3.789 4.13,-4.259 2.835,-0.583 5.709,-0.755 8.499,0.23 2.526,0.892 4.936,2.045 7.149,3.585 C -1.393,-0.157 -0.841,0.475 0,0"
         style="fill:#bfd760;fill-opacity:1;fill-rule:nonzero;stroke:none"
         id="path1366"
         inkscape:connector-curvature="0" />
    </g>
    <g
       id="g1368"
       transform="matrix(1.25,0,0,-1.25,193.4996,855.86595)">
      <path
         d="m 0,0 c -2.771,-1.714 -5.534,-3.429 -8.625,-4.553 -3.131,-1.139 -6.307,-1.118 -9.43,-0.257 -2.295,0.632 -3.741,2.255 -3.863,4.792 1.315,1.965 3.149,3.456 4.735,5.174 0.695,0.753 1.597,0.559 2.45,0.526 4.424,-0.171 8.825,0.084 13.2,0.742 2.531,0.38 4.745,1.735 7.178,2.425 C 5.466,7.133 4.284,5.982 3.316,4.709 2.788,4.016 2.234,3.337 1.987,2.476 1.751,2.163 1.515,1.85 1.28,1.538 0.786,1.074 0.414,0.508 -0.006,-0.017 L 0,0 Z"
         style="fill:#efefd7;fill-opacity:1;fill-rule:nonzero;stroke:none"
         id="path1370"
         inkscape:connector-curvature="0" />
    </g>
    <g
       id="g1372"
       transform="matrix(1.25,0,0,-1.25,158.69697,857.91875)">
      <path
         d="m 0,0 c -2.575,-2.625 -5.161,-5.239 -7.717,-7.882 -0.678,-0.701 -1.353,-0.728 -2.165,-0.3 -4.099,2.161 -8.029,4.585 -11.696,7.428 -0.843,0.654 -0.987,1.276 -0.262,2.173 2.988,3.7 6.062,7.324 9.315,10.795 0.581,-0.451 0.69,-1.138 0.847,-1.782 C -10.721,6.512 -8,3.99 -4.869,1.785 -3.405,0.754 -1.485,0.972 0,0"
         style="fill:#bfd760;fill-opacity:1;fill-rule:nonzero;stroke:none"
         id="path1374"
         inkscape:connector-curvature="0" />
    </g>
    <g
       id="g1376"
       transform="matrix(1.25,0,0,-1.25,158.69697,857.91875)">
      <path
         d="m 0,0 c -5.422,-0.48 -12.371,6.43 -12.525,12.213 1.177,1.806 2.673,3.339 4.149,4.891 0.69,0.728 1.367,0.819 2.003,-0.021 C -2.959,12.575 1.635,9.89 7.33,8.461 4.753,5.523 2.848,2.367 0,0"
         style="fill:#efefd7;fill-opacity:1;fill-rule:nonzero;stroke:none"
         id="path1378"
         inkscape:connector-curvature="0" />
    </g>
    <g
       id="g1380"
       transform="matrix(1.25,0,0,-1.25,114.61635,902.87635)">
      <path
         d="m 0,0 c -3.93,-4.534 -8.567,-8.305 -13.112,-12.177 -0.583,-0.497 -1.096,-0.397 -1.591,0.105 -1.461,1.485 -2.903,2.991 -4.385,4.454 -0.713,0.704 -0.409,1.3 0.037,1.954 3.028,4.432 6.048,8.868 9.07,13.303 1.046,-1.292 1.455,-2.943 2.537,-4.25 C -5.952,1.585 -4.317,0.335 -1.847,0.525 -1.201,0.575 -0.495,0.595 0,0"
         style="fill:#bfd760;fill-opacity:1;fill-rule:nonzero;stroke:none"
         id="path1382"
         inkscape:connector-curvature="0" />
    </g>
    <g
       id="g1384"
       transform="matrix(1.25,0,0,-1.25,131.92635,914.90585)">
      <path
         d="m 0,0 c -4.071,-2.584 -8.143,-5.164 -12.211,-7.753 -1.122,-0.714 -2.377,-0.191 -3.55,-0.417 -2.126,0.274 -4.221,0.696 -6.238,1.432 -0.638,0.233 -1.381,0.486 -0.54,1.363 4.67,4.871 8.635,10.386 13.648,14.943 0.189,-0.209 0.26,-0.455 0.26,-0.736 C -8.619,4.039 -6.029,1.081 -1.297,0.459 -0.828,0.398 -0.353,0.377 0,0"
         style="fill:#bfd760;fill-opacity:1;fill-rule:nonzero;stroke:none"
         id="path1386"
         inkscape:connector-curvature="0" />
    </g>
    <g
       id="g1388"
       transform="matrix(1.25,0,0,-1.25,131.92635,914.90585)">
      <path
         d="m 0,0 c -2.894,-0.338 -5.179,0.762 -7.18,2.813 -1.915,1.964 -2.642,4.123 -1.711,6.755 3.211,4.185 3.149,4.055 7.897,1.808 C 3.148,9.416 7.284,7.204 12.135,7.64 11.987,7.382 11.839,7.124 11.691,6.866 9.858,5.56 8.412,3.679 6.091,3.097 4.061,2.065 2.03,1.032 0,0"
         style="fill:#efefd7;fill-opacity:1;fill-rule:nonzero;stroke:none"
         id="path1390"
         inkscape:connector-curvature="0" />
    </g>
    <g
       id="g1392"
       transform="matrix(1.25,0,0,-1.25,114.61635,902.87635)">
      <path
         d="m 0,0 c -5.689,-0.19 -9.023,2.362 -9.981,7.639 1.256,2.839 3.373,5.139 4.889,7.814 0.54,0.953 0.999,0.766 1.666,0.12 C -0.733,12.966 2.097,10.51 4.676,7.775 5.761,6.625 5.581,6.026 4.604,5.044 2.999,3.433 1.528,1.688 0,0"
         style="fill:#efefd7;fill-opacity:1;fill-rule:nonzero;stroke:none"
         id="path1394"
         inkscape:connector-curvature="0" />
    </g>
    <g
       id="g1396"
       transform="matrix(1.25,0,0,-1.25,109.74435,940.75875)">
      <path
         d="m 0,0 c -4.521,-0.914 -9.094,-1.199 -13.698,-1.171 -4.343,0.027 -8.686,-0.006 -13.029,-0.012 8.225,1.713 15.319,6.23 22.993,9.309 1.247,0.501 1.5,0.29 1.794,-1.01 C -1.399,4.724 -1.142,2.234 0,0"
         style="fill:#798f48;fill-opacity:1;fill-rule:nonzero;stroke:none"
         id="path1398"
         inkscape:connector-curvature="0" />
    </g>
    <g
       id="g1400"
       transform="matrix(1.25,0,0,-1.25,168.22197,804.37875)">
      <path
         d="m 0,0 c -0.117,-1.484 -0.971,-2.223 -2.229,-2.268 -1.378,-0.05 -2.086,0.929 -2.097,2.202 -0.012,1.266 0.689,2.29 2.034,2.294 C -0.897,2.231 -0.187,1.239 0,0"
         style="fill:#bbd15f;fill-opacity:1;fill-rule:nonzero;stroke:none"
         id="path1402"
         inkscape:connector-curvature="0" />
    </g>
    <g
       id="g1404"
       transform="matrix(1.25,0,0,-1.25,177.36385,829.60785)">
      <path
         d="M 0,0 C -1.185,0.256 -2.041,0.864 -2.008,2.121 -1.967,3.67 -0.881,4.371 0.508,4.373 1.773,4.375 2.439,3.451 2.365,2.241 2.28,0.842 1.314,0.189 0,0"
         style="fill:#bbd15f;fill-opacity:1;fill-rule:nonzero;stroke:none"
         id="path1406"
         inkscape:connector-curvature="0" />
    </g>
    <g
       id="g1408"
       transform="matrix(1.25,0,0,-1.25,197.0336,823.70295)">
      <path
         d="M 0,0 C -1.345,0.065 -1.97,0.894 -1.95,2.083 -1.924,3.562 -1.011,4.469 0.461,4.448 1.762,4.43 2.335,3.365 2.289,2.245 2.236,0.92 1.445,0.038 0,0"
         style="fill:#bcd35f;fill-opacity:1;fill-rule:nonzero;stroke:none"
         id="path1410"
         inkscape:connector-curvature="0" />
    </g>
    <g
       id="g1412"
       transform="matrix(1.25,0,0,-1.25,191.52797,825.48545)">
      <path
         d="m 0,0 c -0.034,-1.605 -1.033,-2.09 -2.389,-2.163 -1.265,-0.069 -1.98,0.67 -1.943,1.803 0.042,1.331 0.793,2.272 2.29,2.294 C -0.721,1.954 -0.08,1.249 0,0"
         style="fill:#bbd15f;fill-opacity:1;fill-rule:nonzero;stroke:none"
         id="path1414"
         inkscape:connector-curvature="0" />
    </g>
    <g
       id="g1416"
       transform="matrix(1.25,0,0,-1.25,161.65547,814.05935)">
      <path
         d="M 0,0 C -0.013,1.625 0.573,2.46 2.002,2.494 3.478,2.53 4.029,1.569 4.07,0.304 4.116,-1.1 3.163,-1.826 1.914,-1.858 0.634,-1.891 0.072,-0.954 0,0"
         style="fill:#bdd35f;fill-opacity:1;fill-rule:nonzero;stroke:none"
         id="path1418"
         inkscape:connector-curvature="0" />
    </g>
    <g
       id="g1420"
       transform="matrix(1.25,0,0,-1.25,170.90522,822.78585)">
      <path
         d="m 0,0 c -0.054,-1.23 -0.801,-1.924 -2.145,-1.914 -1.288,0.009 -1.971,0.749 -1.948,2.011 0.025,1.383 0.768,2.347 2.173,2.349 C -0.545,2.448 -0.012,1.444 0,0"
         style="fill:#bdd35f;fill-opacity:1;fill-rule:nonzero;stroke:none"
         id="path1422"
         inkscape:connector-curvature="0" />
    </g>
    <g
       id="g1424"
       transform="matrix(1.25,0,0,-1.25,174.37547,796.95275)">
      <path
         d="m 0,0 c -0.173,-1.108 -0.989,-1.921 -2.489,-1.954 -1.189,-0.027 -1.765,0.643 -1.614,1.771 0.188,1.407 0.977,2.341 2.505,2.353 C -0.421,2.179 0.077,1.494 0,0"
         style="fill:#bdd45f;fill-opacity:1;fill-rule:nonzero;stroke:none"
         id="path1426"
         inkscape:connector-curvature="0" />
    </g>
    <g
       id="g1428"
       transform="matrix(1.25,0,0,-1.25,198.0101,811.59095)">
      <path
         d="M 0,0 C 0.044,1.299 0.605,2.138 2.034,2.191 3.346,2.239 3.874,1.421 3.857,0.302 3.839,-0.955 3.248,-1.927 1.821,-1.952 0.574,-1.973 0.052,-1.197 0,0"
         style="fill:#bed55f;fill-opacity:1;fill-rule:nonzero;stroke:none"
         id="path1430"
         inkscape:connector-curvature="0" />
    </g>
    <g
       id="g1432"
       transform="matrix(1.25,0,0,-1.25,195.95247,801.40035)">
      <path
         d="M 0,0 C -0.021,1.244 0.717,1.909 1.824,1.92 3.073,1.934 3.749,1.106 3.722,-0.149 3.696,-1.386 2.856,-1.932 1.76,-1.938 0.56,-1.944 0,-1.177 0,0"
         style="fill:#bbd15f;fill-opacity:1;fill-rule:nonzero;stroke:none"
         id="path1434"
         inkscape:connector-curvature="0" />
    </g>
    <g
       id="g1436"
       transform="matrix(1.25,0,0,-1.25,183.9791,793.44615)">
      <path
         d="m 0,0 c -0.082,-1.28 -0.892,-1.822 -1.979,-1.888 -1.082,-0.065 -1.8,0.487 -1.758,1.675 0.044,1.23 0.887,1.801 1.954,1.89 C -0.672,1.769 -0.1,1.051 0,0"
         style="fill:#bcd25f;fill-opacity:1;fill-rule:nonzero;stroke:none"
         id="path1438"
         inkscape:connector-curvature="0" />
    </g>
    <g
       id="g1440"
       transform="matrix(1.25,0,0,-1.25,190.97947,792.23085)">
      <path
         d="M 0,0 C 1.282,0.026 2.029,-0.314 2.071,-1.422 2.118,-2.653 1.384,-3.232 0.23,-3.342 -0.824,-3.443 -1.476,-2.912 -1.547,-1.896 -1.633,-0.669 -0.858,-0.114 0,0"
         style="fill:#bcd15f;fill-opacity:1;fill-rule:nonzero;stroke:none"
         id="path1442"
         inkscape:connector-curvature="0" />
    </g>
    <g
       id="g1444"
       transform="matrix(1.25,0,0,-1.25,251.61747,875.08295)">
      <path
         d="m 0,0 c -1.001,-0.656 -1.726,-0.245 -2.422,0.555 -2.126,2.438 -3.473,5.385 -5.294,8.024 -2.695,3.908 -4.512,8.364 -7.467,12.118 -0.571,0.725 -0.576,1.329 0.148,2.083 5.654,5.89 11.27,11.818 17.541,17.07 0.776,0.65 1.541,1.588 2.801,1.009 2.34,-2.5 2.464,-5.722 2.673,-8.826 C 8.615,22.61 6.597,13.679 2.682,5.128 1.876,3.367 1.271,1.513 0,0"
         style="fill:#604848;fill-opacity:1;fill-rule:nonzero;stroke:none"
         id="path1446"
         inkscape:connector-curvature="0" />
    </g>
    <g
       id="g1448"
       transform="matrix(1.25,0,0,-1.25,139.54022,911.03465)">
      <path
         d="m 0,0 c 1.904,1.202 3.294,3.165 5.6,3.769 1.516,-0.921 1.815,-2.595 2.367,-4.048 2.584,-6.807 4.002,-13.976 6.387,-20.85 0.231,-0.665 0.11,-1.453 0.153,-2.184 -0.397,-0.026 -0.794,-0.052 -1.192,-0.078 -2.072,0.021 -4.144,0.07 -6.216,0.052 C 6.274,-23.347 5.683,-23.2 5.474,-22.276 3.784,-14.818 1.427,-7.523 0,0"
         style="fill:#604848;fill-opacity:1;fill-rule:nonzero;stroke:none"
         id="path1450"
         inkscape:connector-curvature="0" />
    </g>
    <g
       id="g1452"
       transform="matrix(1.25,0,0,-1.25,285.47672,823.09225)">
      <path
         d="m 0,0 c 5.583,-7.02 11.143,-14.058 16.77,-21.043 1.106,-1.372 1.334,-2.385 0.194,-3.981 -4.361,-6.103 -8.53,-12.344 -12.794,-18.517 -0.408,-0.589 -0.723,-1.599 -1.817,-0.892 -2.125,3.638 -2.379,7.796 -3.225,11.78 -1.862,8.763 -0.347,17.567 -0.16,26.352 C -0.987,-4.185 -1.172,-1.962 0,0"
         style="fill:#604848;fill-opacity:1;fill-rule:nonzero;stroke:none"
         id="path1454"
         inkscape:connector-curvature="0" />
    </g>
    <g
       id="g1456"
       transform="matrix(1.25,0,0,-1.25,205.87397,742.10635)">
      <path
         d="m 0,0 c -0.025,-2.973 -3.369,-6.213 -6.343,-6.147 -2.771,0.061 -6.154,3.045 -6.165,5.437 -0.016,3.869 2.828,6.6 6.86,6.586 C -2.483,5.864 0.028,3.252 0,0"
         style="fill:#010101;fill-opacity:1;fill-rule:nonzero;stroke:none"
         id="path1458"
         inkscape:connector-curvature="0" />
    </g>
    <g
       id="g1460"
       transform="matrix(1.25,0,0,-1.25,193.4916,855.88695)">
      <path
         d="M 0,0 C 0.114,0.779 0.611,1.24 1.286,1.555 1.122,0.818 0.701,0.293 0,0"
         style="fill:#bfd760;fill-opacity:1;fill-rule:nonzero;stroke:none"
         id="path1462"
         inkscape:connector-curvature="0" />
    </g>
    <g
       id="g1464"
       transform="matrix(1.25,0,0,-1.25,202.1586,739.45465)">
      <path
         d="m 0,0 c -0.09,-1.572 -0.971,-2.313 -2.466,-2.34 -1.375,-0.025 -1.938,0.862 -1.895,2.076 0.05,1.419 0.743,2.52 2.294,2.529 C -0.68,2.273 -0.15,1.245 0,0"
         style="fill:#f6f6f6;fill-opacity:1;fill-rule:nonzero;stroke:none"
         id="path1466"
         inkscape:connector-curvature="0" />
    </g>
  </g>
</svg>
